{
  "source": "C:\\Users\\Peter\\Desktop\\stuff\\MIUN\\quantitative_research\\video_compression\\videos\\UVG\\YachtRide_1920x1080_120fps_420_8bit_YUV.y4m",
  "output": "C:\\Users\\Peter\\Desktop\\stuff\\MIUN\\quantitative_research\\video_compression\\compressed_videos\\UVG\\hevc\\2.5\\YachtRide_1920x1080_120fps_420_8bit_YUV_hevc.mp4",
  "codec": "hevc",
  "ok": "[yuv4mpegpipe @ 0000017825496740] Stream #0: not enough frames to estimate rate; consider increasing probesize\nInput #0, yuv4mpegpipe, from 'C:\\Users\\Peter\\Desktop\\stuff\\MIUN\\quantitative_research\\video_compression\\videos\\UVG\\YachtRide_1920x1080_120fps_420_8bit_YUV.y4m':\n  Duration: 00:00:05.00, start: 0.000000, bitrate: 2985989 kb/s\n  Stream #0:0: Video: rawvideo (I420 / 0x30323449), yuv420p(progressive), 1920x1080, 120 fps, 120 tbr, 120 tbn\n[out#0/mp4 @ 0000017825499ac0] Codec AVOption b:a (set bitrate (in bits/s)) has not been used for any stream. The most likely reason is either wrong type (e.g. a video option with no video streams) or that it is a private option of some decoder which was not actually used for any stream.\nStream mapping:\n  Stream #0:0 -> #0:0 (rawvideo (native) -> hevc (libx265))\nPress [q] to stop, [?] for help\n[libx265 @ 000001782549cb00] Unknown option: \"aq-mode.\nx265 [info]: HEVC encoder version 4.1+190-8f11c33ac\nx265 [info]: build info [Windows][GCC 15.1.0][64 bit] 10bit\nx265 [info]: using cpu capabilities: MMX2 SSE2Fast LZCNT SSSE3 SSE4.2 AVX FMA3 BMI2 AVX2\nx265 [info]: Main 10 profile, Level-5 (Main tier)\nx265 [info]: Thread pool created using 12 threads\nx265 [info]: Slices                              : 1\nx265 [info]: frame threads / pool features       : 3 / wpp(17 rows)\nx265 [info]: Coding QT: max CU size, min CU size : 64 / 8\nx265 [info]: Residual QT: max TU size, max depth : 32 / 1 inter / 1 intra\nx265 [info]: ME / range / subpel / merge         : star / 57 / 3 / 3\nx265 [info]: Keyframe min / max / scenecut / bias  : 25 / 250 / 40 / 5.00 \nx265 [info]: Lookahead / bframes / badapt        : 25 / 4 / 2\nx265 [info]: b-pyramid / weightp / weightb       : 1 / 1 / 0\nx265 [info]: References / ref-limit  cu / depth  : 4 / on / on\nx265 [info]: AQ: mode / str / qg-size / cu-tree  : 2 / 1.0 / 32 / 1\nx265 [info]: Rate Control / qCompress            : ABR-2500 kbps / 0.60\nx265 [info]: VBV/HRD buffer / max-rate / init    : 2500 / 2500 / 0.750\nx265 [info]: tools: rect limit-modes rd=4 psy-rd=2.00 rdoq=2 psy-rdoq=1.00\nx265 [info]: tools: rskip mode=1 signhide tmvp strong-intra-smoothing lslices=4\nx265 [info]: tools: deblock sao dhdr10-info\nOutput #0, mp4, to 'C:\\Users\\Peter\\Desktop\\stuff\\MIUN\\quantitative_research\\video_compression\\compressed_videos\\UVG\\hevc\\2.5\\YachtRide_1920x1080_120fps_420_8bit_YUV_hevc.mp4':\n  Metadata:\n    encoder         : Lavf62.3.100\n  Stream #0:0: Video: hevc (hev1 / 0x31766568), yuv420p10le(tv, progressive), 1920x1080, q=2-31, 2500 kb/s, 120 fps, 15360 tbn\n    Metadata:\n      encoder         : Lavc62.11.100 libx265\n    Side data:\n      cpb: bitrate max/min/avg: 2500000/0/2500000 buffer size: 2500000 vbv_delay: N/A\nframe=    0 fps=0.0 q=0.0 size=       0KiB time=N/A bitrate=N/A speed=N/A elapsed=0:00:00.51    \nframe=    0 fps=0.0 q=0.0 size=       0KiB time=N/A bitrate=N/A speed=N/A elapsed=0:00:01.03    \nframe=    0 fps=0.0 q=0.0 size=       0KiB time=N/A bitrate=N/A speed=N/A elapsed=0:00:01.58    \nframe=    0 fps=0.0 q=0.0 size=       0KiB time=N/A bitrate=N/A speed=N/A elapsed=0:00:02.13    \nframe=    0 fps=0.0 q=0.0 size=       0KiB time=N/A bitrate=N/A speed=N/A elapsed=0:00:02.67    \nframe=    0 fps=0.0 q=0.0 size=       0KiB time=N/A bitrate=N/A speed=N/A elapsed=0:00:03.20    \nframe=    0 fps=0.0 q=0.0 size=       0KiB time=N/A bitrate=N/A speed=N/A elapsed=0:00:03.73    \nframe=    1 fps=0.2 q=48.1 size=       0KiB time=-00:00:00.00 bitrate=N/A speed=N/A elapsed=0:00:04.25    \nframe=    1 fps=0.2 q=48.1 size=       0KiB time=-00:00:00.00 bitrate=N/A speed=N/A elapsed=0:00:04.76    \nframe=    2 fps=0.4 q=50.8 size=       0KiB time=00:00:00.00 bitrate=N/A speed=   0x elapsed=0:00:05.28    \nframe=    4 fps=0.7 q=51.0 size=       0KiB time=00:00:00.01 bitrate=  21.1kbits/s speed=0.00287x elapsed=0:00:05.80    \nframe=    5 fps=0.8 q=51.0 size=       0KiB time=00:00:00.02 bitrate=  14.1kbits/s speed=0.00395x elapsed=0:00:06.32    \nframe=    6 fps=0.9 q=51.0 size=       0KiB time=00:00:00.03 bitrate=  10.6kbits/s speed=0.00487x elapsed=0:00:06.83    \nframe=    7 fps=0.9 q=45.6 size=       0KiB time=00:00:00.04 bitrate=   8.4kbits/s speed=0.00565x elapsed=0:00:07.37    \nframe=    7 fps=0.9 q=45.6 size=       0KiB time=00:00:00.04 bitrate=   8.4kbits/s speed=0.00525x elapsed=0:00:07.93    \nframe=    7 fps=0.8 q=45.6 size=       0KiB time=00:00:00.04 bitrate=   8.4kbits/s speed=0.0049x elapsed=0:00:08.50    \nframe=    7 fps=0.8 q=45.6 size=       0KiB time=00:00:00.04 bitrate=   8.4kbits/s speed=0.00461x elapsed=0:00:09.04    \nframe=    8 fps=0.8 q=48.2 size=       0KiB time=00:00:00.05 bitrate=   7.0kbits/s speed=0.00522x elapsed=0:00:09.58    \nframe=    8 fps=0.8 q=48.2 size=       0KiB time=00:00:00.05 bitrate=   7.0kbits/s speed=0.00494x elapsed=0:00:10.12    \nframe=    9 fps=0.8 q=48.9 size=       0KiB time=00:00:00.05 bitrate=   6.0kbits/s speed=0.00546x elapsed=0:00:10.68    \nframe=   10 fps=0.9 q=48.9 size=       0KiB time=00:00:00.06 bitrate=   5.3kbits/s speed=0.00595x elapsed=0:00:11.21    \nframe=   10 fps=0.9 q=48.9 size=       0KiB time=00:00:00.06 bitrate=   5.3kbits/s speed=0.00568x elapsed=0:00:11.74    \nframe=   10 fps=0.8 q=48.9 size=       0KiB time=00:00:00.06 bitrate=   5.3kbits/s speed=0.00543x elapsed=0:00:12.26    \nframe=   10 fps=0.8 q=48.9 size=       0KiB time=00:00:00.06 bitrate=   5.3kbits/s speed=0.0052x elapsed=0:00:12.82    \nframe=   11 fps=0.8 q=42.6 size=       0KiB time=00:00:00.07 bitrate=   4.7kbits/s speed=0.00561x elapsed=0:00:13.36    \nframe=   12 fps=0.9 q=48.3 size=       0KiB time=00:00:00.08 bitrate=   4.2kbits/s speed=0.00599x elapsed=0:00:13.91    \nframe=   12 fps=0.8 q=48.3 size=       0KiB time=00:00:00.08 bitrate=   4.2kbits/s speed=0.00576x elapsed=0:00:14.45    \nframe=   13 fps=0.9 q=48.9 size=       0KiB time=00:00:00.09 bitrate=   3.8kbits/s speed=0.00611x elapsed=0:00:15.01    \nframe=   13 fps=0.8 q=48.9 size=       0KiB time=00:00:00.09 bitrate=   3.8kbits/s speed=0.00588x elapsed=0:00:15.59    \nframe=   14 fps=0.9 q=50.0 size=       0KiB time=00:00:00.10 bitrate=   3.5kbits/s speed=0.0062x elapsed=0:00:16.12    \nframe=   14 fps=0.8 q=50.0 size=       0KiB time=00:00:00.10 bitrate=   3.5kbits/s speed=0.006x elapsed=0:00:16.67    \nframe=   14 fps=0.8 q=50.0 size=       0KiB time=00:00:00.10 bitrate=   3.5kbits/s speed=0.0058x elapsed=0:00:17.22    \nframe=   15 fps=0.8 q=43.3 size=       0KiB time=00:00:00.10 bitrate=   3.2kbits/s speed=0.0061x elapsed=0:00:17.76    \nframe=   16 fps=0.9 q=47.1 size=       0KiB time=00:00:00.10 bitrate=   3.2kbits/s speed=0.00589x elapsed=0:00:18.39    \nframe=   16 fps=0.8 q=47.1 size=       0KiB time=00:00:00.11 bitrate=   3.0kbits/s speed=0.00616x elapsed=0:00:18.95    \nframe=   16 fps=0.8 q=47.1 size=       0KiB time=00:00:00.11 bitrate=   3.0kbits/s speed=0.00599x elapsed=0:00:19.48    \nframe=   16 fps=0.8 q=47.1 size=       0KiB time=00:00:00.11 bitrate=   3.0kbits/s speed=0.00582x elapsed=0:00:20.05    \nframe=   16 fps=0.8 q=47.1 size=       0KiB time=00:00:00.11 bitrate=   3.0kbits/s speed=0.00565x elapsed=0:00:20.63    \nframe=   16 fps=0.8 q=47.1 size=       0KiB time=00:00:00.11 bitrate=   3.0kbits/s speed=0.00551x elapsed=0:00:21.18    \nframe=   16 fps=0.7 q=47.1 size=       0KiB time=00:00:00.11 bitrate=   3.0kbits/s speed=0.00536x elapsed=0:00:21.78    \nframe=   17 fps=0.8 q=48.9 size=       0KiB time=00:00:00.12 bitrate=   2.8kbits/s speed=0.00558x elapsed=0:00:22.40    \nframe=   17 fps=0.7 q=48.9 size=       0KiB time=00:00:00.12 bitrate=   2.8kbits/s speed=0.00543x elapsed=0:00:23.00    \nframe=   17 fps=0.7 q=48.9 size=       0KiB time=00:00:00.12 bitrate=   2.8kbits/s speed=0.0053x elapsed=0:00:23.58    \nframe=   17 fps=0.7 q=48.9 size=       0KiB time=00:00:00.12 bitrate=   2.8kbits/s speed=0.00517x elapsed=0:00:24.15    \nframe=   19 fps=0.8 q=42.2 size=       0KiB time=00:00:00.14 bitrate=   2.5kbits/s speed=0.00574x elapsed=0:00:24.70    \nframe=   19 fps=0.8 q=42.2 size=       0KiB time=00:00:00.14 bitrate=   2.5kbits/s speed=0.00561x elapsed=0:00:25.26    \nframe=   20 fps=0.8 q=46.9 size=       0KiB time=00:00:00.15 bitrate=   2.3kbits/s speed=0.00581x elapsed=0:00:25.81    \nframe=   20 fps=0.8 q=46.9 size=       0KiB time=00:00:00.15 bitrate=   2.3kbits/s speed=0.0057x elapsed=0:00:26.32    \nframe=   21 fps=0.8 q=48.9 size=       0KiB time=00:00:00.15 bitrate=   2.2kbits/s speed=0.0059x elapsed=0:00:26.84    \nframe=   22 fps=0.8 q=49.0 size=       0KiB time=00:00:00.16 bitrate=   2.1kbits/s speed=0.00608x elapsed=0:00:27.39    \nframe=   23 fps=0.8 q=41.7 size=       0KiB time=00:00:00.17 bitrate=   2.0kbits/s speed=0.00627x elapsed=0:00:27.91    \nframe=   24 fps=0.8 q=46.5 size=       0KiB time=00:00:00.18 bitrate=   1.9kbits/s speed=0.00645x elapsed=0:00:28.43    \nframe=   24 fps=0.8 q=46.5 size=       0KiB time=00:00:00.18 bitrate=   1.9kbits/s speed=0.00633x elapsed=0:00:28.96    \nframe=   25 fps=0.8 q=48.0 size=       0KiB time=00:00:00.19 bitrate=   1.8kbits/s speed=0.00649x elapsed=0:00:29.52    \nframe=   26 fps=0.9 q=48.1 size=       0KiB time=00:00:00.20 bitrate=   1.8kbits/s speed=0.00666x elapsed=0:00:30.03    \nframe=   27 fps=0.9 q=42.1 size=       0KiB time=00:00:00.20 bitrate=   1.7kbits/s speed=0.00682x elapsed=0:00:30.55    \nframe=   28 fps=0.9 q=45.8 size=       0KiB time=00:00:00.21 bitrate=   1.6kbits/s speed=0.00697x elapsed=0:00:31.09    \nframe=   29 fps=0.9 q=48.0 size=       0KiB time=00:00:00.22 bitrate=   1.6kbits/s speed=0.00711x elapsed=0:00:31.63    \nframe=   29 fps=0.9 q=48.0 size=       0KiB time=00:00:00.22 bitrate=   1.6kbits/s speed=0.00699x elapsed=0:00:32.17    \nframe=   30 fps=0.9 q=48.0 size=       0KiB time=00:00:00.23 bitrate=   1.5kbits/s speed=0.00714x elapsed=0:00:32.69    \nframe=   31 fps=0.9 q=42.2 size=       0KiB time=00:00:00.24 bitrate=   1.5kbits/s speed=0.00727x elapsed=0:00:33.21    \nframe=   32 fps=0.9 q=46.1 size=       0KiB time=00:00:00.25 bitrate=   1.4kbits/s speed=0.00741x elapsed=0:00:33.73    \nframe=   32 fps=0.9 q=46.1 size=       0KiB time=00:00:00.25 bitrate=   1.4kbits/s speed=0.0073x elapsed=0:00:34.26    \nframe=   33 fps=0.9 q=48.0 size=       0KiB time=00:00:00.25 bitrate=   1.4kbits/s speed=0.00742x elapsed=0:00:34.80    \nframe=   34 fps=1.0 q=48.0 size=       0KiB time=00:00:00.26 bitrate=   1.3kbits/s speed=0.00755x elapsed=0:00:35.30    \nframe=   35 fps=1.0 q=41.8 size=       0KiB time=00:00:00.27 bitrate=   1.3kbits/s speed=0.00768x elapsed=0:00:35.82    \nframe=   36 fps=1.0 q=46.2 size=       0KiB time=00:00:00.28 bitrate=   1.2kbits/s speed=0.0078x elapsed=0:00:36.33    \nframe=   36 fps=1.0 q=46.2 size=       0KiB time=00:00:00.28 bitrate=   1.2kbits/s speed=0.00769x elapsed=0:00:36.86    \nframe=   36 fps=1.0 q=46.2 size=       0KiB time=00:00:00.28 bitrate=   1.2kbits/s speed=0.00757x elapsed=0:00:37.40    \nframe=   37 fps=1.0 q=48.0 size=       0KiB time=00:00:00.29 bitrate=   1.2kbits/s speed=0.00769x elapsed=0:00:37.93    \nframe=   38 fps=1.0 q=47.9 size=       0KiB time=00:00:00.30 bitrate=   1.2kbits/s speed=0.0078x elapsed=0:00:38.45    \nframe=   40 fps=1.0 q=45.8 size=       0KiB time=00:00:00.31 bitrate=   1.1kbits/s speed=0.00812x elapsed=0:00:38.98    \nframe=   40 fps=1.0 q=45.8 size=       0KiB time=00:00:00.31 bitrate=   1.1kbits/s speed=0.00801x elapsed=0:00:39.52    \nframe=   41 fps=1.0 q=47.9 size=       0KiB time=00:00:00.32 bitrate=   1.1kbits/s speed=0.00811x elapsed=0:00:40.06    \nframe=   42 fps=1.0 q=48.0 size=       0KiB time=00:00:00.33 bitrate=   1.1kbits/s speed=0.00821x elapsed=0:00:40.59    \nframe=   44 fps=1.1 q=46.0 size=       0KiB time=00:00:00.35 bitrate=   1.0kbits/s speed=0.00851x elapsed=0:00:41.13    \nframe=   45 fps=1.1 q=48.0 size=       0KiB time=00:00:00.35 bitrate=   1.0kbits/s speed=0.0086x elapsed=0:00:41.66    \nframe=   45 fps=1.1 q=48.0 size=       0KiB time=00:00:00.35 bitrate=   1.0kbits/s speed=0.00849x elapsed=0:00:42.21    \nframe=   45 fps=1.1 q=48.0 size=       0KiB time=00:00:00.35 bitrate=   1.0kbits/s speed=0.00838x elapsed=0:00:42.74    \nframe=   47 fps=1.1 q=41.7 size=       0KiB time=00:00:00.37 bitrate=   0.9kbits/s speed=0.00867x elapsed=0:00:43.26    \nframe=   48 fps=1.1 q=45.4 size=       0KiB time=00:00:00.38 bitrate=   0.9kbits/s speed=0.00876x elapsed=0:00:43.77    \nframe=   48 fps=1.1 q=45.4 size=       0KiB time=00:00:00.38 bitrate=   0.9kbits/s speed=0.00865x elapsed=0:00:44.31    \nframe=   49 fps=1.1 q=48.0 size=       0KiB time=00:00:00.39 bitrate=   0.9kbits/s speed=0.00873x elapsed=0:00:44.86    \nframe=   50 fps=1.1 q=48.0 size=       0KiB time=00:00:00.40 bitrate=   0.9kbits/s speed=0.00881x elapsed=0:00:45.42    \nframe=   52 fps=1.1 q=45.8 size=       0KiB time=00:00:00.41 bitrate=   0.8kbits/s speed=0.00907x elapsed=0:00:45.94    \nframe=   53 fps=1.1 q=48.0 size=       0KiB time=00:00:00.42 bitrate=   0.8kbits/s speed=0.00915x elapsed=0:00:46.46    \nframe=   53 fps=1.1 q=48.0 size=       0KiB time=00:00:00.42 bitrate=   0.8kbits/s speed=0.00905x elapsed=0:00:46.98    \nframe=   54 fps=1.1 q=47.9 size=       0KiB time=00:00:00.43 bitrate=   0.8kbits/s speed=0.00912x elapsed=0:00:47.50    \nframe=   55 fps=1.1 q=42.3 size=       0KiB time=00:00:00.44 bitrate=   0.8kbits/s speed=0.00919x elapsed=0:00:48.05    \nframe=   56 fps=1.2 q=45.8 size=       0KiB time=00:00:00.45 bitrate=   0.8kbits/s speed=0.00926x elapsed=0:00:48.59    \nframe=   56 fps=1.1 q=45.8 size=       0KiB time=00:00:00.45 bitrate=   0.8kbits/s speed=0.00916x elapsed=0:00:49.13    \nframe=   56 fps=1.1 q=45.8 size=       0KiB time=00:00:00.45 bitrate=   0.8kbits/s speed=0.00906x elapsed=0:00:49.65    \nframe=   57 fps=1.1 q=47.9 size=       0KiB time=00:00:00.45 bitrate=   0.8kbits/s speed=0.00913x elapsed=0:00:50.17    \nframe=   58 fps=1.1 q=47.9 size=       0KiB time=00:00:00.46 bitrate=   0.8kbits/s speed=0.0092x elapsed=0:00:50.73    \nframe=   59 fps=1.2 q=42.5 size=       0KiB time=00:00:00.47 bitrate=   0.7kbits/s speed=0.00927x elapsed=0:00:51.26    \nframe=   60 fps=1.2 q=45.6 size=       0KiB time=00:00:00.48 bitrate=   0.7kbits/s speed=0.00933x elapsed=0:00:51.79    \nframe=   61 fps=1.2 q=47.7 size=       0KiB time=00:00:00.49 bitrate=   0.7kbits/s speed=0.0094x elapsed=0:00:52.31    \nframe=   61 fps=1.2 q=47.7 size=       0KiB time=00:00:00.49 bitrate=   0.7kbits/s speed=0.00931x elapsed=0:00:52.82    \nframe=   62 fps=1.2 q=47.9 size=       0KiB time=00:00:00.50 bitrate=   0.7kbits/s speed=0.00937x elapsed=0:00:53.34    \nframe=   62 fps=1.2 q=47.9 size=       0KiB time=00:00:00.50 bitrate=   0.7kbits/s speed=0.00928x elapsed=0:00:53.86    \nframe=   64 fps=1.2 q=46.2 size=       0KiB time=00:00:00.51 bitrate=   0.7kbits/s speed=0.0095x elapsed=0:00:54.37    \nframe=   64 fps=1.2 q=46.2 size=       0KiB time=00:00:00.51 bitrate=   0.7kbits/s speed=0.00941x elapsed=0:00:54.90    \nframe=   65 fps=1.2 q=48.0 size=       0KiB time=00:00:00.52 bitrate=   0.7kbits/s speed=0.00947x elapsed=0:00:55.42    \nframe=   65 fps=1.2 q=48.0 size=       0KiB time=00:00:00.52 bitrate=   0.7kbits/s speed=0.00939x elapsed=0:00:55.93    \nframe=   66 fps=1.2 q=47.9 size=       0KiB time=00:00:00.53 bitrate=   0.7kbits/s speed=0.00945x elapsed=0:00:56.44    \nframe=   67 fps=1.2 q=42.2 size=       0KiB time=00:00:00.54 bitrate=   0.6kbits/s speed=0.00951x elapsed=0:00:56.97    \nframe=   68 fps=1.2 q=46.1 size=       0KiB time=00:00:00.55 bitrate=   0.6kbits/s speed=0.00957x elapsed=0:00:57.49    \nframe=   69 fps=1.2 q=47.8 size=       0KiB time=00:00:00.55 bitrate=   0.6kbits/s speed=0.00962x elapsed=0:00:58.04    \nframe=   70 fps=1.2 q=48.0 size=       0KiB time=00:00:00.56 bitrate=   0.6kbits/s speed=0.00967x elapsed=0:00:58.57    \nframe=   70 fps=1.2 q=48.0 size=       0KiB time=00:00:00.56 bitrate=   0.6kbits/s speed=0.00959x elapsed=0:00:59.10    \nframe=   70 fps=1.2 q=48.0 size=       0KiB time=00:00:00.56 bitrate=   0.6kbits/s speed=0.0095x elapsed=0:00:59.62    \nframe=   71 fps=1.2 q=42.1 size=       0KiB time=00:00:00.57 bitrate=   0.6kbits/s speed=0.00956x elapsed=0:01:00.14    \nframe=   72 fps=1.2 q=45.8 size=       0KiB time=00:00:00.58 bitrate=   0.6kbits/s speed=0.00961x elapsed=0:01:00.68    \nframe=   73 fps=1.2 q=47.9 size=       0KiB time=00:00:00.59 bitrate=   0.6kbits/s speed=0.00967x elapsed=0:01:01.19    \nframe=   74 fps=1.2 q=47.9 size=       0KiB time=00:00:00.60 bitrate=   0.6kbits/s speed=0.00972x elapsed=0:01:01.73    \nframe=   75 fps=1.2 q=41.9 size=       0KiB time=00:00:00.60 bitrate=   0.6kbits/s speed=0.00977x elapsed=0:01:02.27    \nframe=   75 fps=1.2 q=41.9 size=       0KiB time=00:00:00.60 bitrate=   0.6kbits/s speed=0.00969x elapsed=0:01:02.79    \nframe=   76 fps=1.2 q=45.8 size=       0KiB time=00:00:00.61 bitrate=   0.6kbits/s speed=0.00974x elapsed=0:01:03.34    \nframe=   76 fps=1.2 q=45.8 size=       0KiB time=00:00:00.61 bitrate=   0.6kbits/s speed=0.00965x elapsed=0:01:03.87    \nframe=   77 fps=1.2 q=47.8 size=       0KiB time=00:00:00.62 bitrate=   0.6kbits/s speed=0.00971x elapsed=0:01:04.38    \nframe=   78 fps=1.2 q=47.9 size=       0KiB time=00:00:00.63 bitrate=   0.6kbits/s speed=0.00976x elapsed=0:01:04.90    \nframe=   79 fps=1.2 q=42.4 size=       0KiB time=00:00:00.64 bitrate=   0.5kbits/s speed=0.00981x elapsed=0:01:05.43    \nframe=   80 fps=1.2 q=45.4 size=       0KiB time=00:00:00.65 bitrate=   0.5kbits/s speed=0.00986x elapsed=0:01:05.95    \nframe=   81 fps=1.2 q=47.8 size=       0KiB time=00:00:00.65 bitrate=   0.5kbits/s speed=0.0099x elapsed=0:01:06.46    \nframe=   82 fps=1.2 q=47.8 size=       0KiB time=00:00:00.66 bitrate=   0.5kbits/s speed=0.00995x elapsed=0:01:07.00    \nframe=   83 fps=1.2 q=42.6 size=       0KiB time=00:00:00.67 bitrate=   0.5kbits/s speed=0.01x elapsed=0:01:07.51    \nframe=   83 fps=1.2 q=42.6 size=       0KiB time=00:00:00.67 bitrate=   0.5kbits/s speed=0.00992x elapsed=0:01:08.02    \nframe=   83 fps=1.2 q=42.6 size=       0KiB time=00:00:00.67 bitrate=   0.5kbits/s speed=0.00985x elapsed=0:01:08.54    \nframe=   84 fps=1.2 q=45.6 size=       0KiB time=00:00:00.68 bitrate=   0.5kbits/s speed=0.00989x elapsed=0:01:09.07    \nframe=   84 fps=1.2 q=45.6 size=       0KiB time=00:00:00.68 bitrate=   0.5kbits/s speed=0.00982x elapsed=0:01:09.59    \nframe=   85 fps=1.2 q=47.8 size=       0KiB time=00:00:00.69 bitrate=   0.5kbits/s speed=0.00987x elapsed=0:01:10.10    \nframe=   86 fps=1.2 q=47.9 size=       0KiB time=00:00:00.70 bitrate=   0.5kbits/s speed=0.00991x elapsed=0:01:10.64    \nframe=   87 fps=1.2 q=42.6 size=       0KiB time=00:00:00.70 bitrate=   0.5kbits/s speed=0.00995x elapsed=0:01:11.17    \nframe=   88 fps=1.2 q=45.8 size=       0KiB time=00:00:00.71 bitrate=   0.5kbits/s speed=0.00999x elapsed=0:01:11.70    \nframe=   88 fps=1.2 q=45.8 size=       0KiB time=00:00:00.71 bitrate=   0.5kbits/s speed=0.00992x elapsed=0:01:12.22    \nframe=   89 fps=1.2 q=48.0 size=       0KiB time=00:00:00.72 bitrate=   0.5kbits/s speed=0.00996x elapsed=0:01:12.76    \nframe=   90 fps=1.2 q=47.8 size=       0KiB time=00:00:00.73 bitrate=   0.5kbits/s speed=0.01x elapsed=0:01:13.30    \nframe=   92 fps=1.2 q=45.9 size=       0KiB time=00:00:00.75 bitrate=   0.5kbits/s speed=0.0102x elapsed=0:01:13.85    \nframe=   92 fps=1.2 q=45.9 size=       0KiB time=00:00:00.75 bitrate=   0.5kbits/s speed=0.0101x elapsed=0:01:14.37    \nframe=   93 fps=1.2 q=47.8 size=       0KiB time=00:00:00.75 bitrate=   0.5kbits/s speed=0.0101x elapsed=0:01:14.91    \nframe=   94 fps=1.2 q=47.9 size=       0KiB time=00:00:00.76 bitrate=   0.5kbits/s speed=0.0102x elapsed=0:01:15.44    \nframe=   95 fps=1.3 q=42.6 size=       0KiB time=00:00:00.77 bitrate=   0.5kbits/s speed=0.0102x elapsed=0:01:15.96    \nframe=   96 fps=1.3 q=45.8 size=       0KiB time=00:00:00.78 bitrate=   0.4kbits/s speed=0.0102x elapsed=0:01:16.47    \nframe=   96 fps=1.2 q=45.8 size=       0KiB time=00:00:00.78 bitrate=   0.4kbits/s speed=0.0102x elapsed=0:01:17.01    \nframe=   97 fps=1.3 q=47.9 size=       0KiB time=00:00:00.79 bitrate=   0.4kbits/s speed=0.0102x elapsed=0:01:17.54    \nframe=   98 fps=1.3 q=47.9 size=       0KiB time=00:00:00.80 bitrate=   0.4kbits/s speed=0.0102x elapsed=0:01:18.07    \nframe=   98 fps=1.2 q=47.9 size=       0KiB time=00:00:00.80 bitrate=   0.4kbits/s speed=0.0102x elapsed=0:01:18.59    \nframe=   99 fps=1.3 q=41.6 size=       0KiB time=00:00:00.80 bitrate=   0.4kbits/s speed=0.0102x elapsed=0:01:19.10    \nframe=  101 fps=1.3 q=47.7 size=       0KiB time=00:00:00.81 bitrate=   0.4kbits/s speed=0.0103x elapsed=0:01:19.62    \nframe=  101 fps=1.3 q=47.7 size=       0KiB time=00:00:00.82 bitrate=   0.4kbits/s speed=0.0103x elapsed=0:01:20.18    \nframe=  102 fps=1.3 q=47.9 size=       0KiB time=00:00:00.83 bitrate=   0.4kbits/s speed=0.0103x elapsed=0:01:20.71    \nframe=  103 fps=1.3 q=42.3 size=       0KiB time=00:00:00.84 bitrate=   0.4kbits/s speed=0.0104x elapsed=0:01:21.23    \nframe=  104 fps=1.3 q=45.9 size=       0KiB time=00:00:00.85 bitrate=   0.4kbits/s speed=0.0104x elapsed=0:01:21.75    \nframe=  105 fps=1.3 q=47.7 size=       0KiB time=00:00:00.85 bitrate=   0.4kbits/s speed=0.0104x elapsed=0:01:22.26    \nframe=  105 fps=1.3 q=47.7 size=       0KiB time=00:00:00.85 bitrate=   0.4kbits/s speed=0.0104x elapsed=0:01:22.80    \nframe=  106 fps=1.3 q=47.8 size=       0KiB time=00:00:00.86 bitrate=   0.4kbits/s speed=0.0104x elapsed=0:01:23.32    \nframe=  106 fps=1.3 q=47.8 size=       0KiB time=00:00:00.86 bitrate=   0.4kbits/s speed=0.0103x elapsed=0:01:23.86    \nframe=  107 fps=1.3 q=42.0 size=       0KiB time=00:00:00.87 bitrate=   0.4kbits/s speed=0.0104x elapsed=0:01:24.39    \nframe=  107 fps=1.3 q=42.0 size=       0KiB time=00:00:00.87 bitrate=   0.4kbits/s speed=0.0103x elapsed=0:01:24.91    \nframe=  108 fps=1.3 q=45.7 size=     256KiB time=00:00:00.88 bitrate=2374.5kbits/s speed=0.0103x elapsed=0:01:25.44    \nframe=  108 fps=1.3 q=45.7 size=     256KiB time=00:00:00.88 bitrate=2374.5kbits/s speed=0.0103x elapsed=0:01:25.96    \nframe=  109 fps=1.3 q=47.9 size=     256KiB time=00:00:00.89 bitrate=2352.3kbits/s speed=0.0103x elapsed=0:01:26.47    \nframe=  110 fps=1.3 q=48.0 size=     256KiB time=00:00:00.90 bitrate=2330.6kbits/s speed=0.0103x elapsed=0:01:27.00    \nframe=  110 fps=1.3 q=48.0 size=     256KiB time=00:00:00.90 bitrate=2330.6kbits/s speed=0.0103x elapsed=0:01:27.52    \nframe=  112 fps=1.3 q=45.8 size=     256KiB time=00:00:00.91 bitrate=2288.2kbits/s speed=0.0104x elapsed=0:01:28.05    \nframe=  112 fps=1.3 q=45.8 size=     256KiB time=00:00:00.91 bitrate=2288.2kbits/s speed=0.0103x elapsed=0:01:28.59    \nframe=  112 fps=1.3 q=45.8 size=     256KiB time=00:00:00.91 bitrate=2288.2kbits/s speed=0.0103x elapsed=0:01:29.11    \nframe=  113 fps=1.3 q=47.8 size=     256KiB time=00:00:00.92 bitrate=2267.6kbits/s speed=0.0103x elapsed=0:01:29.63    \nframe=  114 fps=1.3 q=47.9 size=     256KiB time=00:00:00.93 bitrate=2247.3kbits/s speed=0.0104x elapsed=0:01:30.15    \nframe=  116 fps=1.3 q=45.6 size=     256KiB time=00:00:00.95 bitrate=2207.9kbits/s speed=0.0105x elapsed=0:01:30.68    \nframe=  117 fps=1.3 q=47.9 size=     256KiB time=00:00:00.95 bitrate=2188.7kbits/s speed=0.0105x elapsed=0:01:31.20    \nframe=  117 fps=1.3 q=47.9 size=     256KiB time=00:00:00.95 bitrate=2188.7kbits/s speed=0.0104x elapsed=0:01:31.74    \nframe=  118 fps=1.3 q=48.0 size=     256KiB time=00:00:00.96 bitrate=2169.8kbits/s speed=0.0105x elapsed=0:01:32.29    \nframe=  118 fps=1.3 q=48.0 size=     256KiB time=00:00:00.96 bitrate=2169.8kbits/s speed=0.0104x elapsed=0:01:32.81    \nframe=  119 fps=1.3 q=41.6 size=     256KiB time=00:00:00.97 bitrate=2151.3kbits/s speed=0.0104x elapsed=0:01:33.35    \nframe=  120 fps=1.3 q=46.2 size=     256KiB time=00:00:00.98 bitrate=2133.1kbits/s speed=0.0105x elapsed=0:01:33.87    \nframe=  120 fps=1.3 q=46.2 size=     256KiB time=00:00:00.98 bitrate=2133.1kbits/s speed=0.0104x elapsed=0:01:34.38    \nframe=  121 fps=1.3 q=47.8 size=     256KiB time=00:00:00.99 bitrate=2115.1kbits/s speed=0.0104x elapsed=0:01:34.90    \nframe=  122 fps=1.3 q=48.0 size=     256KiB time=00:00:01.00 bitrate=2097.5kbits/s speed=0.0105x elapsed=0:01:35.42    \nframe=  123 fps=1.3 q=41.9 size=     256KiB time=00:00:01.00 bitrate=2080.2kbits/s speed=0.0105x elapsed=0:01:35.95    \nframe=  124 fps=1.3 q=46.0 size=     256KiB time=00:00:01.01 bitrate=2063.1kbits/s speed=0.0105x elapsed=0:01:36.47    \nframe=  124 fps=1.3 q=46.0 size=     256KiB time=00:00:01.01 bitrate=2063.1kbits/s speed=0.0105x elapsed=0:01:36.98    \nframe=  125 fps=1.3 q=47.5 size=     256KiB time=00:00:01.02 bitrate=2046.3kbits/s speed=0.0105x elapsed=0:01:37.51    \nframe=  125 fps=1.3 q=47.5 size=     256KiB time=00:00:01.02 bitrate=2046.3kbits/s speed=0.0105x elapsed=0:01:38.05    \nframe=  126 fps=1.3 q=47.7 size=     256KiB time=00:00:01.03 bitrate=2029.8kbits/s speed=0.0105x elapsed=0:01:38.58    \nframe=  127 fps=1.3 q=42.2 size=     256KiB time=00:00:01.04 bitrate=2013.6kbits/s speed=0.0105x elapsed=0:01:39.10    \nframe=  128 fps=1.3 q=45.7 size=     256KiB time=00:00:01.05 bitrate=1997.6kbits/s speed=0.0105x elapsed=0:01:39.62    \nframe=  128 fps=1.3 q=45.7 size=     256KiB time=00:00:01.05 bitrate=1997.6kbits/s speed=0.0105x elapsed=0:01:40.14    \nframe=  129 fps=1.3 q=47.8 size=     256KiB time=00:00:01.05 bitrate=1981.9kbits/s speed=0.0105x elapsed=0:01:40.67    \nframe=  130 fps=1.3 q=47.9 size=     256KiB time=00:00:01.06 bitrate=1966.4kbits/s speed=0.0105x elapsed=0:01:41.17    \nframe=  130 fps=1.3 q=47.9 size=     256KiB time=00:00:01.06 bitrate=1966.4kbits/s speed=0.0105x elapsed=0:01:41.72    \nframe=  131 fps=1.3 q=42.1 size=     256KiB time=00:00:01.07 bitrate=1951.2kbits/s speed=0.0105x elapsed=0:01:42.26    \nframe=  132 fps=1.3 q=45.9 size=     256KiB time=00:00:01.08 bitrate=1936.2kbits/s speed=0.0105x elapsed=0:01:42.80    \nframe=  132 fps=1.3 q=45.9 size=     256KiB time=00:00:01.08 bitrate=1936.2kbits/s speed=0.0105x elapsed=0:01:43.32    \nframe=  133 fps=1.3 q=47.8 size=     256KiB time=00:00:01.09 bitrate=1921.4kbits/s speed=0.0105x elapsed=0:01:43.83    \nframe=  133 fps=1.3 q=47.8 size=     256KiB time=00:00:01.09 bitrate=1921.4kbits/s speed=0.0105x elapsed=0:01:44.36    \nframe=  134 fps=1.3 q=47.7 size=     256KiB time=00:00:01.10 bitrate=1906.8kbits/s speed=0.0105x elapsed=0:01:44.90    \nframe=  135 fps=1.3 q=42.2 size=     256KiB time=00:00:01.10 bitrate=1892.5kbits/s speed=0.0105x elapsed=0:01:45.43    \nframe=  136 fps=1.3 q=45.6 size=     256KiB time=00:00:01.11 bitrate=1878.4kbits/s speed=0.0105x elapsed=0:01:45.98    \nframe=  137 fps=1.3 q=47.8 size=     256KiB time=00:00:01.12 bitrate=1864.4kbits/s speed=0.0106x elapsed=0:01:46.49    \nframe=  137 fps=1.3 q=47.8 size=     256KiB time=00:00:01.12 bitrate=1864.4kbits/s speed=0.0105x elapsed=0:01:47.01    \nframe=  138 fps=1.3 q=47.6 size=     256KiB time=00:00:01.13 bitrate=1850.7kbits/s speed=0.0105x elapsed=0:01:47.53    \nframe=  139 fps=1.3 q=41.9 size=     256KiB time=00:00:01.14 bitrate=1837.2kbits/s speed=0.0106x elapsed=0:01:48.07    \nframe=  140 fps=1.3 q=45.6 size=     256KiB time=00:00:01.15 bitrate=1823.9kbits/s speed=0.0106x elapsed=0:01:48.61    \nframe=  141 fps=1.3 q=47.8 size=     256KiB time=00:00:01.15 bitrate=1810.8kbits/s speed=0.0106x elapsed=0:01:49.17    \nframe=  142 fps=1.3 q=47.8 size=     256KiB time=00:00:01.16 bitrate=1797.9kbits/s speed=0.0106x elapsed=0:01:49.70    \nframe=  142 fps=1.3 q=47.8 size=     256KiB time=00:00:01.16 bitrate=1797.9kbits/s speed=0.0106x elapsed=0:01:50.22    \nframe=  142 fps=1.3 q=47.8 size=     256KiB time=00:00:01.16 bitrate=1797.9kbits/s speed=0.0105x elapsed=0:01:50.73    \nframe=  144 fps=1.3 q=46.0 size=     256KiB time=00:00:01.18 bitrate=1772.5kbits/s speed=0.0106x elapsed=0:01:51.24    \nframe=  144 fps=1.3 q=46.0 size=     256KiB time=00:00:01.18 bitrate=1772.5kbits/s speed=0.0106x elapsed=0:01:51.76    \nframe=  145 fps=1.3 q=47.7 size=     256KiB time=00:00:01.19 bitrate=1760.1kbits/s speed=0.0106x elapsed=0:01:52.27    \nframe=  146 fps=1.3 q=47.7 size=     256KiB time=00:00:01.20 bitrate=1747.9kbits/s speed=0.0106x elapsed=0:01:52.79    \nframe=  147 fps=1.3 q=42.7 size=     256KiB time=00:00:01.20 bitrate=1735.9kbits/s speed=0.0107x elapsed=0:01:53.30    \nframe=  148 fps=1.3 q=46.0 size=     256KiB time=00:00:01.21 bitrate=1724.0kbits/s speed=0.0107x elapsed=0:01:53.86    \nframe=  148 fps=1.3 q=46.0 size=     256KiB time=00:00:01.21 bitrate=1724.0kbits/s speed=0.0106x elapsed=0:01:54.39    \nframe=  148 fps=1.3 q=46.0 size=     256KiB time=00:00:01.21 bitrate=1724.0kbits/s speed=0.0106x elapsed=0:01:54.92    \nframe=  149 fps=1.3 q=47.9 size=     256KiB time=00:00:01.22 bitrate=1712.2kbits/s speed=0.0106x elapsed=0:01:55.45    \nframe=  150 fps=1.3 q=47.8 size=     256KiB time=00:00:01.23 bitrate=1700.7kbits/s speed=0.0106x elapsed=0:01:55.97    \nframe=  150 fps=1.3 q=47.8 size=     256KiB time=00:00:01.23 bitrate=1700.7kbits/s speed=0.0106x elapsed=0:01:56.50    \nframe=  152 fps=1.3 q=45.8 size=     256KiB time=00:00:01.25 bitrate=1678.0kbits/s speed=0.0107x elapsed=0:01:57.02    \nframe=  153 fps=1.3 q=47.9 size=     256KiB time=00:00:01.25 bitrate=1666.9kbits/s speed=0.0107x elapsed=0:01:57.54    \nframe=  153 fps=1.3 q=47.9 size=     256KiB time=00:00:01.25 bitrate=1666.9kbits/s speed=0.0107x elapsed=0:01:58.07    \nframe=  154 fps=1.3 q=47.7 size=     256KiB time=00:00:01.26 bitrate=1655.9kbits/s speed=0.0107x elapsed=0:01:58.62    \nframe=  155 fps=1.3 q=42.1 size=     256KiB time=00:00:01.27 bitrate=1645.1kbits/s speed=0.0107x elapsed=0:01:59.14    \nframe=  155 fps=1.3 q=42.1 size=     256KiB time=00:00:01.27 bitrate=1645.1kbits/s speed=0.0107x elapsed=0:01:59.67    \nframe=  156 fps=1.3 q=46.0 size=     256KiB time=00:00:01.28 bitrate=1634.4kbits/s speed=0.0107x elapsed=0:02:00.19    \nframe=  157 fps=1.3 q=47.9 size=     256KiB time=00:00:01.29 bitrate=1623.9kbits/s speed=0.0107x elapsed=0:02:00.71    \nframe=  158 fps=1.3 q=47.7 size=     256KiB time=00:00:01.30 bitrate=1613.5kbits/s speed=0.0107x elapsed=0:02:01.23    \nframe=  158 fps=1.3 q=47.7 size=     256KiB time=00:00:01.30 bitrate=1613.5kbits/s speed=0.0107x elapsed=0:02:01.75    \nframe=  159 fps=1.3 q=41.9 size=     256KiB time=00:00:01.30 bitrate=1603.2kbits/s speed=0.0107x elapsed=0:02:02.28    \nframe=  160 fps=1.3 q=45.8 size=     256KiB time=00:00:01.31 bitrate=1593.0kbits/s speed=0.0107x elapsed=0:02:02.82    \nframe=  160 fps=1.3 q=45.8 size=     256KiB time=00:00:01.31 bitrate=1593.0kbits/s speed=0.0107x elapsed=0:02:03.36    \nframe=  161 fps=1.3 q=47.9 size=     256KiB time=00:00:01.32 bitrate=1583.0kbits/s speed=0.0107x elapsed=0:02:03.87    \nframe=  161 fps=1.3 q=47.9 size=     256KiB time=00:00:01.32 bitrate=1583.0kbits/s speed=0.0107x elapsed=0:02:04.38    \nframe=  162 fps=1.3 q=47.9 size=     256KiB time=00:00:01.33 bitrate=1573.1kbits/s speed=0.0107x elapsed=0:02:04.90    \nframe=  163 fps=1.3 q=42.2 size=     256KiB time=00:00:01.34 bitrate=1563.4kbits/s speed=0.0107x elapsed=0:02:05.43    \nframe=  164 fps=1.3 q=45.9 size=     256KiB time=00:00:01.35 bitrate=1553.7kbits/s speed=0.0107x elapsed=0:02:05.94    \nframe=  164 fps=1.3 q=45.9 size=     256KiB time=00:00:01.35 bitrate=1553.7kbits/s speed=0.0107x elapsed=0:02:06.47    \nframe=  165 fps=1.3 q=47.9 size=     256KiB time=00:00:01.35 bitrate=1544.2kbits/s speed=0.0107x elapsed=0:02:07.02    \nframe=  166 fps=1.3 q=47.8 size=     256KiB time=00:00:01.36 bitrate=1534.8kbits/s speed=0.0107x elapsed=0:02:07.53    \nframe=  166 fps=1.3 q=47.8 size=     256KiB time=00:00:01.36 bitrate=1534.8kbits/s speed=0.0107x elapsed=0:02:08.05    \nframe=  166 fps=1.3 q=47.8 size=     256KiB time=00:00:01.36 bitrate=1534.8kbits/s speed=0.0106x elapsed=0:02:08.57    \nframe=  167 fps=1.3 q=42.3 size=     256KiB time=00:00:01.37 bitrate=1525.5kbits/s speed=0.0107x elapsed=0:02:09.09    \nframe=  168 fps=1.3 q=45.9 size=     256KiB time=00:00:01.38 bitrate=1516.3kbits/s speed=0.0107x elapsed=0:02:09.60    \nframe=  168 fps=1.3 q=45.9 size=     256KiB time=00:00:01.38 bitrate=1516.3kbits/s speed=0.0106x elapsed=0:02:10.13    \nframe=  169 fps=1.3 q=48.0 size=     256KiB time=00:00:01.39 bitrate=1507.2kbits/s speed=0.0107x elapsed=0:02:10.65    \nframe=  170 fps=1.3 q=48.0 size=     256KiB time=00:00:01.40 bitrate=1498.2kbits/s speed=0.0107x elapsed=0:02:11.19    \nframe=  170 fps=1.3 q=48.0 size=     256KiB time=00:00:01.40 bitrate=1498.2kbits/s speed=0.0106x elapsed=0:02:11.71    \nframe=  172 fps=1.3 q=45.7 size=     256KiB time=00:00:01.41 bitrate=1480.6kbits/s speed=0.0107x elapsed=0:02:12.25    \nframe=  173 fps=1.3 q=48.0 size=     256KiB time=00:00:01.42 bitrate=1471.9kbits/s speed=0.0107x elapsed=0:02:12.83    \nframe=  173 fps=1.3 q=48.0 size=     256KiB time=00:00:01.42 bitrate=1471.9kbits/s speed=0.0107x elapsed=0:02:13.36    \nframe=  174 fps=1.3 q=48.0 size=     256KiB time=00:00:01.43 bitrate=1463.4kbits/s speed=0.0107x elapsed=0:02:13.91    \nframe=  174 fps=1.3 q=48.0 size=     256KiB time=00:00:01.43 bitrate=1463.4kbits/s speed=0.0107x elapsed=0:02:14.45    \nframe=  174 fps=1.3 q=48.0 size=     256KiB time=00:00:01.43 bitrate=1463.4kbits/s speed=0.0106x elapsed=0:02:15.03    \nframe=  174 fps=1.3 q=48.0 size=     256KiB time=00:00:01.43 bitrate=1463.4kbits/s speed=0.0106x elapsed=0:02:15.60    \nframe=  175 fps=1.3 q=42.5 size=     256KiB time=00:00:01.44 bitrate=1454.9kbits/s speed=0.0106x elapsed=0:02:16.15    \nframe=  175 fps=1.3 q=42.5 size=     256KiB time=00:00:01.44 bitrate=1454.9kbits/s speed=0.0105x elapsed=0:02:16.74    \nframe=  175 fps=1.3 q=42.5 size=     256KiB time=00:00:01.44 bitrate=1454.9kbits/s speed=0.0105x elapsed=0:02:17.31    \nframe=  176 fps=1.3 q=46.0 size=     256KiB time=00:00:01.45 bitrate=1446.6kbits/s speed=0.0105x elapsed=0:02:17.95    \nframe=  176 fps=1.3 q=46.0 size=     256KiB time=00:00:01.45 bitrate=1446.6kbits/s speed=0.0105x elapsed=0:02:18.52    \nframe=  177 fps=1.3 q=48.0 size=     256KiB time=00:00:01.45 bitrate=1438.3kbits/s speed=0.0105x elapsed=0:02:19.12    \nframe=  177 fps=1.3 q=48.0 size=     256KiB time=00:00:01.45 bitrate=1438.3kbits/s speed=0.0104x elapsed=0:02:19.66    \nframe=  177 fps=1.3 q=48.0 size=     256KiB time=00:00:01.45 bitrate=1438.3kbits/s speed=0.0104x elapsed=0:02:20.23    \nframe=  177 fps=1.3 q=48.0 size=     256KiB time=00:00:01.45 bitrate=1438.3kbits/s speed=0.0104x elapsed=0:02:20.78    \nframe=  178 fps=1.3 q=47.9 size=     256KiB time=00:00:01.46 bitrate=1430.1kbits/s speed=0.0104x elapsed=0:02:21.36    \nframe=  178 fps=1.3 q=47.9 size=     256KiB time=00:00:01.46 bitrate=1430.1kbits/s speed=0.0103x elapsed=0:02:21.92    \nframe=  178 fps=1.2 q=47.9 size=     256KiB time=00:00:01.46 bitrate=1430.1kbits/s speed=0.0103x elapsed=0:02:22.53    \nframe=  178 fps=1.2 q=47.9 size=     256KiB time=00:00:01.46 bitrate=1430.1kbits/s speed=0.0102x elapsed=0:02:23.12    \nframe=  178 fps=1.2 q=47.9 size=     256KiB time=00:00:01.46 bitrate=1430.1kbits/s speed=0.0102x elapsed=0:02:23.68    \nframe=  178 fps=1.2 q=47.9 size=     256KiB time=00:00:01.46 bitrate=1430.1kbits/s speed=0.0102x elapsed=0:02:24.26    \nframe=  180 fps=1.2 q=45.9 size=     256KiB time=00:00:01.48 bitrate=1414.0kbits/s speed=0.0102x elapsed=0:02:24.84    \nframe=  180 fps=1.2 q=45.9 size=     256KiB time=00:00:01.48 bitrate=1414.0kbits/s speed=0.0102x elapsed=0:02:25.41    \nframe=  180 fps=1.2 q=45.9 size=     256KiB time=00:00:01.48 bitrate=1414.0kbits/s speed=0.0102x elapsed=0:02:25.99    \nframe=  180 fps=1.2 q=45.9 size=     256KiB time=00:00:01.48 bitrate=1414.0kbits/s speed=0.0101x elapsed=0:02:26.53    \nframe=  180 fps=1.2 q=45.9 size=     256KiB time=00:00:01.48 bitrate=1414.0kbits/s speed=0.0101x elapsed=0:02:27.08    \nframe=  180 fps=1.2 q=45.9 size=     256KiB time=00:00:01.48 bitrate=1414.0kbits/s speed=0.01x elapsed=0:02:27.64    \nframe=  181 fps=1.2 q=48.0 size=     256KiB time=00:00:01.49 bitrate=1406.1kbits/s speed=0.0101x elapsed=0:02:28.20    \nframe=  181 fps=1.2 q=48.0 size=     256KiB time=00:00:01.49 bitrate=1406.1kbits/s speed=0.01x elapsed=0:02:28.81    \nframe=  181 fps=1.2 q=48.0 size=     256KiB time=00:00:01.49 bitrate=1406.1kbits/s speed=0.00999x elapsed=0:02:29.37    \nframe=  182 fps=1.2 q=48.0 size=     256KiB time=00:00:01.50 bitrate=1398.3kbits/s speed=0.01x elapsed=0:02:29.91    \nframe=  183 fps=1.2 q=41.8 size=     256KiB time=00:00:01.50 bitrate=1390.6kbits/s speed=0.01x elapsed=0:02:30.49    \nframe=  184 fps=1.2 q=45.8 size=     256KiB time=00:00:01.51 bitrate=1383.0kbits/s speed=0.01x elapsed=0:02:31.04    \nframe=  184 fps=1.2 q=45.8 size=     256KiB time=00:00:01.51 bitrate=1383.0kbits/s speed=0.01x elapsed=0:02:31.55    \nframe=  185 fps=1.2 q=47.9 size=     256KiB time=00:00:01.52 bitrate=1375.4kbits/s speed=0.01x elapsed=0:02:32.08    \nframe=  186 fps=1.2 q=47.9 size=     256KiB time=00:00:01.53 bitrate=1367.9kbits/s speed=0.01x elapsed=0:02:32.61    \nframe=  186 fps=1.2 q=47.9 size=     256KiB time=00:00:01.53 bitrate=1367.9kbits/s speed=0.01x elapsed=0:02:33.13    \nframe=  186 fps=1.2 q=47.9 size=     256KiB time=00:00:01.53 bitrate=1367.9kbits/s speed=0.00998x elapsed=0:02:33.67    \nframe=  188 fps=1.2 q=45.9 size=     256KiB time=00:00:01.55 bitrate=1353.2kbits/s speed=0.0101x elapsed=0:02:34.20    \nframe=  189 fps=1.2 q=47.8 size=     256KiB time=00:00:01.55 bitrate=1346.0kbits/s speed=0.0101x elapsed=0:02:34.73    \nframe=  189 fps=1.2 q=47.8 size=     256KiB time=00:00:01.55 bitrate=1346.0kbits/s speed=0.01x elapsed=0:02:35.26    \nframe=  189 fps=1.2 q=47.8 size=     256KiB time=00:00:01.55 bitrate=1346.0kbits/s speed=0.01x elapsed=0:02:35.78    \nframe=  190 fps=1.2 q=47.9 size=     256KiB time=00:00:01.56 bitrate=1338.8kbits/s speed=0.01x elapsed=0:02:36.32    \nframe=  191 fps=1.2 q=42.0 size=     256KiB time=00:00:01.57 bitrate=1331.7kbits/s speed=0.01x elapsed=0:02:36.85    \nframe=  192 fps=1.2 q=46.0 size=     256KiB time=00:00:01.58 bitrate=1324.7kbits/s speed=0.0101x elapsed=0:02:37.36    \nframe=  193 fps=1.2 q=47.8 size=     256KiB time=00:00:01.59 bitrate=1317.8kbits/s speed=0.0101x elapsed=0:02:37.91    \nframe=  193 fps=1.2 q=47.8 size=     256KiB time=00:00:01.59 bitrate=1317.8kbits/s speed=0.01x elapsed=0:02:38.44    \nframe=  194 fps=1.2 q=48.0 size=     256KiB time=00:00:01.60 bitrate=1310.9kbits/s speed=0.0101x elapsed=0:02:38.95    \nframe=  195 fps=1.2 q=42.3 size=     256KiB time=00:00:01.60 bitrate=1304.1kbits/s speed=0.0101x elapsed=0:02:39.48    \nframe=  196 fps=1.2 q=45.6 size=     256KiB time=00:00:01.61 bitrate=1297.4kbits/s speed=0.0101x elapsed=0:02:40.00    \nframe=  197 fps=1.2 q=47.9 size=     256KiB time=00:00:01.62 bitrate=1290.8kbits/s speed=0.0101x elapsed=0:02:40.54    \nframe=  198 fps=1.2 q=48.0 size=     256KiB time=00:00:01.63 bitrate=1284.2kbits/s speed=0.0101x elapsed=0:02:41.08    \nframe=  198 fps=1.2 q=48.0 size=     256KiB time=00:00:01.63 bitrate=1284.2kbits/s speed=0.0101x elapsed=0:02:41.59    \nframe=  199 fps=1.2 q=42.4 size=     256KiB time=00:00:01.64 bitrate=1277.7kbits/s speed=0.0101x elapsed=0:02:42.10    \nframe=  200 fps=1.2 q=45.9 size=     256KiB time=00:00:01.65 bitrate=1271.2kbits/s speed=0.0101x elapsed=0:02:42.67    \nframe=  200 fps=1.2 q=45.9 size=     256KiB time=00:00:01.65 bitrate=1271.2kbits/s speed=0.0101x elapsed=0:02:43.18    \nframe=  201 fps=1.2 q=47.9 size=     256KiB time=00:00:01.65 bitrate=1264.8kbits/s speed=0.0101x elapsed=0:02:43.71    \nframe=  202 fps=1.2 q=48.0 size=     256KiB time=00:00:01.66 bitrate=1258.5kbits/s speed=0.0101x elapsed=0:02:44.23    \nframe=  203 fps=1.2 q=42.4 size=     256KiB time=00:00:01.67 bitrate=1252.2kbits/s speed=0.0102x elapsed=0:02:44.76    \nframe=  203 fps=1.2 q=42.4 size=     256KiB time=00:00:01.67 bitrate=1252.2kbits/s speed=0.0101x elapsed=0:02:45.29    \nframe=  203 fps=1.2 q=42.4 size=     256KiB time=00:00:01.67 bitrate=1252.2kbits/s speed=0.0101x elapsed=0:02:45.84    \nframe=  204 fps=1.2 q=45.9 size=     512KiB time=00:00:01.68 bitrate=2491.9kbits/s speed=0.0101x elapsed=0:02:46.37    \nframe=  205 fps=1.2 q=48.0 size=     512KiB time=00:00:01.69 bitrate=2479.6kbits/s speed=0.0101x elapsed=0:02:46.90    \nframe=  205 fps=1.2 q=48.0 size=     512KiB time=00:00:01.69 bitrate=2479.6kbits/s speed=0.0101x elapsed=0:02:47.41    \nframe=  206 fps=1.2 q=48.0 size=     512KiB time=00:00:01.70 bitrate=2467.4kbits/s speed=0.0101x elapsed=0:02:47.93    \nframe=  207 fps=1.2 q=42.3 size=     512KiB time=00:00:01.70 bitrate=2455.4kbits/s speed=0.0101x elapsed=0:02:48.51    \nframe=  208 fps=1.2 q=45.8 size=     512KiB time=00:00:01.71 bitrate=2443.5kbits/s speed=0.0102x elapsed=0:02:49.05    \nframe=  208 fps=1.2 q=45.8 size=     512KiB time=00:00:01.71 bitrate=2443.5kbits/s speed=0.0101x elapsed=0:02:49.57    \nframe=  208 fps=1.2 q=45.8 size=     512KiB time=00:00:01.71 bitrate=2443.5kbits/s speed=0.0101x elapsed=0:02:50.09    \nframe=  209 fps=1.2 q=48.1 size=     512KiB time=00:00:01.72 bitrate=2431.7kbits/s speed=0.0101x elapsed=0:02:50.61    \nframe=  210 fps=1.2 q=47.9 size=     512KiB time=00:00:01.73 bitrate=2420.0kbits/s speed=0.0101x elapsed=0:02:51.15    \nframe=  210 fps=1.2 q=47.9 size=     512KiB time=00:00:01.73 bitrate=2420.0kbits/s speed=0.0101x elapsed=0:02:51.69    \nframe=  211 fps=1.2 q=42.6 size=     512KiB time=00:00:01.74 bitrate=2408.4kbits/s speed=0.0101x elapsed=0:02:52.23    \nframe=  212 fps=1.2 q=45.8 size=     512KiB time=00:00:01.75 bitrate=2396.9kbits/s speed=0.0101x elapsed=0:02:52.75    \nframe=  212 fps=1.2 q=45.8 size=     512KiB time=00:00:01.75 bitrate=2396.9kbits/s speed=0.0101x elapsed=0:02:53.26    \nframe=  213 fps=1.2 q=47.8 size=     512KiB time=00:00:01.75 bitrate=2385.6kbits/s speed=0.0101x elapsed=0:02:53.78    \nframe=  213 fps=1.2 q=47.8 size=     512KiB time=00:00:01.75 bitrate=2385.6kbits/s speed=0.0101x elapsed=0:02:54.32    \nframe=  213 fps=1.2 q=47.8 size=     512KiB time=00:00:01.75 bitrate=2385.6kbits/s speed=0.0101x elapsed=0:02:54.85    \nframe=  216 fps=1.2 q=45.9 size=     512KiB time=00:00:01.78 bitrate=2352.1kbits/s speed=0.0102x elapsed=0:02:55.36    \nframe=  217 fps=1.2 q=47.9 size=     512KiB time=00:00:01.79 bitrate=2341.2kbits/s speed=0.0102x elapsed=0:02:55.88    \nframe=  218 fps=1.2 q=48.0 size=     512KiB time=00:00:01.80 bitrate=2330.4kbits/s speed=0.0102x elapsed=0:02:56.40    \nframe=  219 fps=1.2 q=42.4 size=     512KiB time=00:00:01.80 bitrate=2319.6kbits/s speed=0.0102x elapsed=0:02:56.93    \nframe=  220 fps=1.2 q=46.0 size=     512KiB time=00:00:01.81 bitrate=2309.0kbits/s speed=0.0102x elapsed=0:02:57.44    \nframe=  220 fps=1.2 q=46.0 size=     512KiB time=00:00:01.81 bitrate=2309.0kbits/s speed=0.0102x elapsed=0:02:57.96    \nframe=  221 fps=1.2 q=48.0 size=     512KiB time=00:00:01.82 bitrate=2298.4kbits/s speed=0.0102x elapsed=0:02:58.50    \nframe=  222 fps=1.2 q=47.9 size=     512KiB time=00:00:01.83 bitrate=2288.0kbits/s speed=0.0102x elapsed=0:02:59.02    \nframe=  222 fps=1.2 q=47.9 size=     512KiB time=00:00:01.83 bitrate=2288.0kbits/s speed=0.0102x elapsed=0:02:59.57    \nframe=  223 fps=1.2 q=42.2 size=     512KiB time=00:00:01.84 bitrate=2277.6kbits/s speed=0.0102x elapsed=0:03:00.10    \nframe=  224 fps=1.2 q=45.6 size=     512KiB time=00:00:01.85 bitrate=2267.4kbits/s speed=0.0102x elapsed=0:03:00.62    \nframe=  225 fps=1.2 q=48.0 size=     512KiB time=00:00:01.85 bitrate=2257.2kbits/s speed=0.0103x elapsed=0:03:01.17    \nframe=  226 fps=1.2 q=48.0 size=     512KiB time=00:00:01.86 bitrate=2247.1kbits/s speed=0.0103x elapsed=0:03:01.69    \nframe=  226 fps=1.2 q=48.0 size=     512KiB time=00:00:01.86 bitrate=2247.1kbits/s speed=0.0102x elapsed=0:03:02.22    \nframe=  226 fps=1.2 q=48.0 size=     512KiB time=00:00:01.86 bitrate=2247.1kbits/s speed=0.0102x elapsed=0:03:02.75    \nframe=  228 fps=1.2 q=45.7 size=     512KiB time=00:00:01.88 bitrate=2227.3kbits/s speed=0.0103x elapsed=0:03:03.26    \nframe=  228 fps=1.2 q=45.7 size=     512KiB time=00:00:01.88 bitrate=2227.3kbits/s speed=0.0102x elapsed=0:03:03.80    \nframe=  229 fps=1.2 q=48.0 size=     512KiB time=00:00:01.89 bitrate=2217.4kbits/s speed=0.0103x elapsed=0:03:04.32    \nframe=  230 fps=1.2 q=48.0 size=     512KiB time=00:00:01.90 bitrate=2207.7kbits/s speed=0.0103x elapsed=0:03:04.83    \nframe=  232 fps=1.3 q=45.7 size=     512KiB time=00:00:01.91 bitrate=2188.5kbits/s speed=0.0103x elapsed=0:03:05.37    \nframe=  232 fps=1.2 q=45.7 size=     512KiB time=00:00:01.91 bitrate=2188.5kbits/s speed=0.0103x elapsed=0:03:05.90    \nframe=  234 fps=1.3 q=48.0 size=     512KiB time=00:00:01.93 bitrate=2169.7kbits/s speed=0.0104x elapsed=0:03:06.44    \nframe=  235 fps=1.3 q=42.6 size=     512KiB time=00:00:01.93 bitrate=2169.7kbits/s speed=0.0103x elapsed=0:03:06.97    \nframe=  236 fps=1.3 q=45.8 size=     512KiB time=00:00:01.95 bitrate=2151.1kbits/s speed=0.0104x elapsed=0:03:07.52    \nframe=  236 fps=1.3 q=45.8 size=     512KiB time=00:00:01.95 bitrate=2151.1kbits/s speed=0.0104x elapsed=0:03:08.06    \nframe=  237 fps=1.3 q=48.0 size=     512KiB time=00:00:01.95 bitrate=2142.0kbits/s speed=0.0104x elapsed=0:03:08.59    \nframe=  238 fps=1.3 q=48.0 size=     512KiB time=00:00:01.96 bitrate=2132.9kbits/s speed=0.0104x elapsed=0:03:09.11    \nframe=  239 fps=1.3 q=42.7 size=     512KiB time=00:00:01.97 bitrate=2123.9kbits/s speed=0.0104x elapsed=0:03:09.64    \nframe=  240 fps=1.3 q=45.7 size=     512KiB time=00:00:01.98 bitrate=2115.0kbits/s speed=0.0104x elapsed=0:03:10.15    \nframe=  241 fps=1.3 q=47.8 size=     512KiB time=00:00:01.99 bitrate=2106.1kbits/s speed=0.0104x elapsed=0:03:10.67    \nframe=  242 fps=1.3 q=48.0 size=     512KiB time=00:00:02.00 bitrate=2097.3kbits/s speed=0.0105x elapsed=0:03:11.18    \nframe=  243 fps=1.3 q=42.7 size=     512KiB time=00:00:02.00 bitrate=2088.6kbits/s speed=0.0105x elapsed=0:03:11.70    \nframe=  244 fps=1.3 q=46.0 size=     512KiB time=00:00:02.01 bitrate=2080.0kbits/s speed=0.0105x elapsed=0:03:12.24    \nframe=  246 fps=1.3 q=48.0 size=     512KiB time=00:00:02.03 bitrate=2062.9kbits/s speed=0.0105x elapsed=0:03:12.77    \nframe=  246 fps=1.3 q=48.0 size=     512KiB time=00:00:02.03 bitrate=2062.9kbits/s speed=0.0105x elapsed=0:03:13.29    \nframe=  246 fps=1.3 q=48.0 size=     512KiB time=00:00:02.03 bitrate=2062.9kbits/s speed=0.0105x elapsed=0:03:13.81    \nframe=  247 fps=1.3 q=42.4 size=     512KiB time=00:00:02.04 bitrate=2054.5kbits/s speed=0.0105x elapsed=0:03:14.33    \nframe=  247 fps=1.3 q=42.4 size=     512KiB time=00:00:02.04 bitrate=2054.5kbits/s speed=0.0105x elapsed=0:03:14.86    \nframe=  248 fps=1.3 q=45.7 size=     512KiB time=00:00:02.05 bitrate=2046.2kbits/s speed=0.0105x elapsed=0:03:15.39    \nframe=  249 fps=1.3 q=48.0 size=     512KiB time=00:00:02.05 bitrate=2037.9kbits/s speed=0.0105x elapsed=0:03:15.90    \nframe=  251 fps=1.3 q=40.1 size=     512KiB time=00:00:02.07 bitrate=2021.5kbits/s speed=0.0106x elapsed=0:03:16.42    \nframe=  251 fps=1.3 q=40.1 size=     512KiB time=00:00:02.07 bitrate=2021.5kbits/s speed=0.0105x elapsed=0:03:16.93    \nframe=  251 fps=1.3 q=40.1 size=     512KiB time=00:00:02.07 bitrate=2021.5kbits/s speed=0.0105x elapsed=0:03:17.46    \nframe=  252 fps=1.3 q=42.5 size=     512KiB time=00:00:02.08 bitrate=2013.4kbits/s speed=0.0105x elapsed=0:03:17.98    \nframe=  254 fps=1.3 q=48.0 size=     512KiB time=00:00:02.10 bitrate=1997.5kbits/s speed=0.0106x elapsed=0:03:18.50    \nframe=  256 fps=1.3 q=48.0 size=     512KiB time=00:00:02.11 bitrate=1981.7kbits/s speed=0.0106x elapsed=0:03:19.03    \nframe=  256 fps=1.3 q=48.0 size=     512KiB time=00:00:02.11 bitrate=1981.7kbits/s speed=0.0106x elapsed=0:03:19.58    \nframe=  258 fps=1.3 q=46.0 size=     512KiB time=00:00:02.13 bitrate=1966.2kbits/s speed=0.0107x elapsed=0:03:20.11    \nframe=  259 fps=1.3 q=48.0 size=     512KiB time=00:00:02.14 bitrate=1958.6kbits/s speed=0.0107x elapsed=0:03:20.65    \nframe=  260 fps=1.3 q=48.0 size=     512KiB time=00:00:02.15 bitrate=1951.0kbits/s speed=0.0107x elapsed=0:03:21.17    \nframe=  261 fps=1.3 q=42.5 size=     512KiB time=00:00:02.15 bitrate=1943.5kbits/s speed=0.0107x elapsed=0:03:21.71    \nframe=  261 fps=1.3 q=42.5 size=     512KiB time=00:00:02.15 bitrate=1943.5kbits/s speed=0.0107x elapsed=0:03:22.25    \nframe=  263 fps=1.3 q=48.0 size=     512KiB time=00:00:02.17 bitrate=1928.6kbits/s speed=0.0107x elapsed=0:03:22.76    \nframe=  264 fps=1.3 q=47.9 size=     512KiB time=00:00:02.18 bitrate=1921.2kbits/s speed=0.0107x elapsed=0:03:23.29    \nframe=  265 fps=1.3 q=48.0 size=     512KiB time=00:00:02.19 bitrate=1913.9kbits/s speed=0.0108x elapsed=0:03:23.81    \nframe=  266 fps=1.3 q=42.5 size=     512KiB time=00:00:02.20 bitrate=1906.7kbits/s speed=0.0108x elapsed=0:03:24.36    \nframe=  267 fps=1.3 q=45.8 size=     512KiB time=00:00:02.20 bitrate=1899.5kbits/s speed=0.0108x elapsed=0:03:24.89    \nframe=  269 fps=1.3 q=47.9 size=     512KiB time=00:00:02.22 bitrate=1885.2kbits/s speed=0.0108x elapsed=0:03:25.42    \nframe=  269 fps=1.3 q=47.9 size=     512KiB time=00:00:02.22 bitrate=1885.2kbits/s speed=0.0108x elapsed=0:03:25.94    \nframe=  270 fps=1.3 q=42.5 size=     512KiB time=00:00:02.23 bitrate=1878.2kbits/s speed=0.0108x elapsed=0:03:26.45    \nframe=  271 fps=1.3 q=45.8 size=     512KiB time=00:00:02.24 bitrate=1871.2kbits/s speed=0.0108x elapsed=0:03:26.99    \nframe=  272 fps=1.3 q=47.9 size=     512KiB time=00:00:02.25 bitrate=1864.3kbits/s speed=0.0108x elapsed=0:03:27.53    \nframe=  273 fps=1.3 q=48.0 size=     512KiB time=00:00:02.25 bitrate=1857.4kbits/s speed=0.0109x elapsed=0:03:28.05    \nframe=  275 fps=1.3 q=45.6 size=     512KiB time=00:00:02.27 bitrate=1843.8kbits/s speed=0.0109x elapsed=0:03:28.60    \nframe=  276 fps=1.3 q=48.0 size=     512KiB time=00:00:02.28 bitrate=1837.1kbits/s speed=0.0109x elapsed=0:03:29.14    \nframe=  277 fps=1.3 q=48.0 size=     512KiB time=00:00:02.29 bitrate=1830.4kbits/s speed=0.0109x elapsed=0:03:29.65    \nframe=  277 fps=1.3 q=48.0 size=     512KiB time=00:00:02.29 bitrate=1830.4kbits/s speed=0.0109x elapsed=0:03:30.17    \nframe=  278 fps=1.3 q=42.4 size=     512KiB time=00:00:02.30 bitrate=1823.8kbits/s speed=0.0109x elapsed=0:03:30.69    \nframe=  280 fps=1.3 q=48.0 size=     512KiB time=00:00:02.31 bitrate=1810.6kbits/s speed=0.011x elapsed=0:03:31.20    \nframe=  281 fps=1.3 q=48.0 size=     512KiB time=00:00:02.32 bitrate=1804.2kbits/s speed=0.011x elapsed=0:03:31.72    \nframe=  282 fps=1.3 q=42.2 size=     512KiB time=00:00:02.33 bitrate=1797.7kbits/s speed=0.011x elapsed=0:03:32.24    \nframe=  282 fps=1.3 q=42.2 size=     512KiB time=00:00:02.33 bitrate=1797.7kbits/s speed=0.011x elapsed=0:03:32.76    \nframe=  282 fps=1.3 q=42.2 size=     512KiB time=00:00:02.33 bitrate=1797.7kbits/s speed=0.0109x elapsed=0:03:33.28    \nframe=  282 fps=1.3 q=42.2 size=     512KiB time=00:00:02.33 bitrate=1797.7kbits/s speed=0.0109x elapsed=0:03:33.80    \nframe=  283 fps=1.3 q=46.0 size=     512KiB time=00:00:02.34 bitrate=1791.3kbits/s speed=0.0109x elapsed=0:03:34.32    \nframe=  284 fps=1.3 q=48.1 size=     512KiB time=00:00:02.35 bitrate=1785.0kbits/s speed=0.0109x elapsed=0:03:34.85    \nframe=  285 fps=1.3 q=48.0 size=     512KiB time=00:00:02.35 bitrate=1778.7kbits/s speed=0.011x elapsed=0:03:35.36    \nframe=  286 fps=1.3 q=42.6 size=     512KiB time=00:00:02.36 bitrate=1772.4kbits/s speed=0.011x elapsed=0:03:35.91    \nframe=  287 fps=1.3 q=46.0 size=     512KiB time=00:00:02.37 bitrate=1766.2kbits/s speed=0.011x elapsed=0:03:36.44    \nframe=  288 fps=1.3 q=48.1 size=     512KiB time=00:00:02.38 bitrate=1760.0kbits/s speed=0.011x elapsed=0:03:36.97    \nframe=  289 fps=1.3 q=48.1 size=     512KiB time=00:00:02.39 bitrate=1753.9kbits/s speed=0.011x elapsed=0:03:37.48    \nframe=  290 fps=1.3 q=42.3 size=     512KiB time=00:00:02.40 bitrate=1747.8kbits/s speed=0.011x elapsed=0:03:37.99    \nframe=  290 fps=1.3 q=42.3 size=     512KiB time=00:00:02.40 bitrate=1747.8kbits/s speed=0.011x elapsed=0:03:38.51    \nframe=  291 fps=1.3 q=46.1 size=     512KiB time=00:00:02.40 bitrate=1741.7kbits/s speed=0.011x elapsed=0:03:39.02    \nframe=  293 fps=1.3 q=48.0 size=     768KiB time=00:00:02.42 bitrate=2594.6kbits/s speed=0.011x elapsed=0:03:39.54    \nframe=  293 fps=1.3 q=48.0 size=     768KiB time=00:00:02.42 bitrate=2594.6kbits/s speed=0.011x elapsed=0:03:40.08    \nframe=  294 fps=1.3 q=42.8 size=     768KiB time=00:00:02.43 bitrate=2585.7kbits/s speed=0.011x elapsed=0:03:40.63    \nframe=  296 fps=1.3 q=47.9 size=     768KiB time=00:00:02.45 bitrate=2568.1kbits/s speed=0.0111x elapsed=0:03:41.17    \nframe=  297 fps=1.3 q=48.0 size=     768KiB time=00:00:02.45 bitrate=2559.4kbits/s speed=0.0111x elapsed=0:03:41.70    \nframe=  298 fps=1.3 q=42.9 size=     768KiB time=00:00:02.46 bitrate=2550.7kbits/s speed=0.0111x elapsed=0:03:42.24    \nframe=  299 fps=1.3 q=46.1 size=     768KiB time=00:00:02.47 bitrate=2542.1kbits/s speed=0.0111x elapsed=0:03:42.80    \nframe=  301 fps=1.3 q=47.9 size=     768KiB time=00:00:02.49 bitrate=2525.1kbits/s speed=0.0112x elapsed=0:03:43.32    \nframe=  301 fps=1.3 q=47.9 size=     768KiB time=00:00:02.49 bitrate=2525.1kbits/s speed=0.0111x elapsed=0:03:43.84    \nframe=  302 fps=1.3 q=42.5 size=     768KiB time=00:00:02.50 bitrate=2516.7kbits/s speed=0.0111x elapsed=0:03:44.35    \nframe=  302 fps=1.3 q=42.5 size=     768KiB time=00:00:02.50 bitrate=2516.7kbits/s speed=0.0111x elapsed=0:03:44.86    \nframe=  304 fps=1.3 q=48.0 size=     768KiB time=00:00:02.51 bitrate=2500.1kbits/s speed=0.0112x elapsed=0:03:45.39    \nframe=  304 fps=1.3 q=48.0 size=     768KiB time=00:00:02.51 bitrate=2500.1kbits/s speed=0.0111x elapsed=0:03:45.94    \nframe=  306 fps=1.4 q=42.3 size=     768KiB time=00:00:02.53 bitrate=2483.6kbits/s speed=0.0112x elapsed=0:03:46.48    \nframe=  307 fps=1.4 q=45.9 size=     768KiB time=00:00:02.54 bitrate=2475.5kbits/s speed=0.0112x elapsed=0:03:46.99    \nframe=  308 fps=1.4 q=48.0 size=     768KiB time=00:00:02.55 bitrate=2467.4kbits/s speed=0.0112x elapsed=0:03:47.53    \nframe=  309 fps=1.4 q=48.0 size=     768KiB time=00:00:02.55 bitrate=2459.3kbits/s speed=0.0112x elapsed=0:03:48.05    \nframe=  309 fps=1.4 q=48.0 size=     768KiB time=00:00:02.55 bitrate=2459.3kbits/s speed=0.0112x elapsed=0:03:48.58    \nframe=  310 fps=1.4 q=42.9 size=     768KiB time=00:00:02.56 bitrate=2451.4kbits/s speed=0.0112x elapsed=0:03:49.12    \nframe=  310 fps=1.3 q=42.9 size=     768KiB time=00:00:02.56 bitrate=2451.4kbits/s speed=0.0112x elapsed=0:03:49.65    \nframe=  311 fps=1.4 q=46.0 size=     768KiB time=00:00:02.57 bitrate=2443.4kbits/s speed=0.0112x elapsed=0:03:50.19    \nframe=  313 fps=1.4 q=48.9 size=     768KiB time=00:00:02.59 bitrate=2427.7kbits/s speed=0.0112x elapsed=0:03:50.71    \nframe=  313 fps=1.4 q=48.9 size=     768KiB time=00:00:02.59 bitrate=2427.7kbits/s speed=0.0112x elapsed=0:03:51.27    \nframe=  314 fps=1.4 q=43.1 size=     768KiB time=00:00:02.60 bitrate=2419.9kbits/s speed=0.0112x elapsed=0:03:51.80    \nframe=  316 fps=1.4 q=48.9 size=     768KiB time=00:00:02.61 bitrate=2404.5kbits/s speed=0.0113x elapsed=0:03:52.33    \nframe=  317 fps=1.4 q=49.0 size=     768KiB time=00:00:02.62 bitrate=2396.9kbits/s speed=0.0113x elapsed=0:03:52.85    \nframe=  317 fps=1.4 q=49.0 size=     768KiB time=00:00:02.62 bitrate=2396.9kbits/s speed=0.0112x elapsed=0:03:53.38    \nframe=  318 fps=1.4 q=43.4 size=     768KiB time=00:00:02.63 bitrate=2389.3kbits/s speed=0.0113x elapsed=0:03:53.92    \nframe=  319 fps=1.4 q=47.1 size=     768KiB time=00:00:02.64 bitrate=2381.8kbits/s speed=0.0113x elapsed=0:03:54.45    \nframe=  321 fps=1.4 q=49.0 size=     768KiB time=00:00:02.65 bitrate=2366.8kbits/s speed=0.0113x elapsed=0:03:55.00    \nframe=  321 fps=1.4 q=49.0 size=     768KiB time=00:00:02.65 bitrate=2366.8kbits/s speed=0.0113x elapsed=0:03:55.53    \nframe=  322 fps=1.4 q=43.0 size=     768KiB time=00:00:02.66 bitrate=2359.4kbits/s speed=0.0113x elapsed=0:03:56.05    \nframe=  323 fps=1.4 q=47.1 size=     768KiB time=00:00:02.67 bitrate=2352.1kbits/s speed=0.0113x elapsed=0:03:56.59    \nframe=  325 fps=1.4 q=48.8 size=     768KiB time=00:00:02.69 bitrate=2337.5kbits/s speed=0.0114x elapsed=0:03:57.13    \nframe=  326 fps=1.4 q=43.0 size=     768KiB time=00:00:02.70 bitrate=2330.3kbits/s speed=0.0114x elapsed=0:03:57.65    \nframe=  327 fps=1.4 q=46.8 size=     768KiB time=00:00:02.70 bitrate=2323.1kbits/s speed=0.0114x elapsed=0:03:58.20    \nframe=  328 fps=1.4 q=49.0 size=     768KiB time=00:00:02.71 bitrate=2316.0kbits/s speed=0.0114x elapsed=0:03:58.72    \nframe=  329 fps=1.4 q=49.0 size=     768KiB time=00:00:02.72 bitrate=2308.9kbits/s speed=0.0114x elapsed=0:03:59.25    \nframe=  329 fps=1.4 q=49.0 size=     768KiB time=00:00:02.72 bitrate=2308.9kbits/s speed=0.0114x elapsed=0:03:59.79    \nframe=  331 fps=1.4 q=46.8 size=     768KiB time=00:00:02.74 bitrate=2294.9kbits/s speed=0.0114x elapsed=0:04:00.31    \nframe=  332 fps=1.4 q=48.9 size=     768KiB time=00:00:02.75 bitrate=2287.9kbits/s speed=0.0114x elapsed=0:04:00.82    \nframe=  333 fps=1.4 q=49.0 size=     768KiB time=00:00:02.75 bitrate=2281.0kbits/s speed=0.0114x elapsed=0:04:01.34    \nframe=  334 fps=1.4 q=43.2 size=     768KiB time=00:00:02.76 bitrate=2274.1kbits/s speed=0.0114x elapsed=0:04:01.85    \nframe=  335 fps=1.4 q=46.5 size=     768KiB time=00:00:02.77 bitrate=2267.3kbits/s speed=0.0114x elapsed=0:04:02.36    \nframe=  336 fps=1.4 q=48.9 size=     768KiB time=00:00:02.78 bitrate=2260.5kbits/s speed=0.0115x elapsed=0:04:02.91    \nframe=  337 fps=1.4 q=48.9 size=     768KiB time=00:00:02.79 bitrate=2253.8kbits/s speed=0.0115x elapsed=0:04:03.44    \nframe=  339 fps=1.4 q=47.2 size=     768KiB time=00:00:02.80 bitrate=2240.4kbits/s speed=0.0115x elapsed=0:04:03.97    \nframe=  340 fps=1.4 q=49.0 size=     768KiB time=00:00:02.81 bitrate=2233.8kbits/s speed=0.0115x elapsed=0:04:04.50    \nframe=  340 fps=1.4 q=49.0 size=     768KiB time=00:00:02.81 bitrate=2233.8kbits/s speed=0.0115x elapsed=0:04:05.01    \nframe=  342 fps=1.4 q=42.7 size=     768KiB time=00:00:02.83 bitrate=2220.6kbits/s speed=0.0115x elapsed=0:04:05.55    \nframe=  342 fps=1.4 q=42.7 size=     768KiB time=00:00:02.83 bitrate=2220.6kbits/s speed=0.0115x elapsed=0:04:06.08    \nframe=  343 fps=1.4 q=46.8 size=     768KiB time=00:00:02.84 bitrate=2214.1kbits/s speed=0.0115x elapsed=0:04:06.60    \nframe=  344 fps=1.4 q=49.0 size=     768KiB time=00:00:02.85 bitrate=2207.7kbits/s speed=0.0115x elapsed=0:04:07.16    \nframe=  345 fps=1.4 q=49.0 size=     768KiB time=00:00:02.85 bitrate=2201.2kbits/s speed=0.0115x elapsed=0:04:07.69    \nframe=  345 fps=1.4 q=49.0 size=     768KiB time=00:00:02.85 bitrate=2201.2kbits/s speed=0.0115x elapsed=0:04:08.22    \nframe=  347 fps=1.4 q=46.9 size=     768KiB time=00:00:02.87 bitrate=2188.5kbits/s speed=0.0116x elapsed=0:04:08.76    \nframe=  349 fps=1.4 q=49.0 size=     768KiB time=00:00:02.89 bitrate=2175.8kbits/s speed=0.0116x elapsed=0:04:09.30    \nframe=  350 fps=1.4 q=43.0 size=     768KiB time=00:00:02.90 bitrate=2169.6kbits/s speed=0.0116x elapsed=0:04:09.81    \nframe=  351 fps=1.4 q=46.9 size=     768KiB time=00:00:02.90 bitrate=2163.4kbits/s speed=0.0116x elapsed=0:04:10.32    \nframe=  353 fps=1.4 q=49.0 size=     768KiB time=00:00:02.92 bitrate=2151.0kbits/s speed=0.0117x elapsed=0:04:10.84    \nframe=  353 fps=1.4 q=49.0 size=     768KiB time=00:00:02.92 bitrate=2151.0kbits/s speed=0.0116x elapsed=0:04:11.37    \nframe=  354 fps=1.4 q=43.2 size=     768KiB time=00:00:02.93 bitrate=2144.9kbits/s speed=0.0116x elapsed=0:04:11.89    \nframe=  355 fps=1.4 q=47.1 size=     768KiB time=00:00:02.94 bitrate=2138.9kbits/s speed=0.0117x elapsed=0:04:12.40    \nframe=  355 fps=1.4 q=47.1 size=     768KiB time=00:00:02.94 bitrate=2138.9kbits/s speed=0.0116x elapsed=0:04:12.92    \nframe=  357 fps=1.4 q=49.0 size=     768KiB time=00:00:02.95 bitrate=2126.8kbits/s speed=0.0117x elapsed=0:04:13.43    \nframe=  357 fps=1.4 q=49.0 size=     768KiB time=00:00:02.95 bitrate=2126.8kbits/s speed=0.0116x elapsed=0:04:13.96    \nframe=  359 fps=1.4 q=46.9 size=     768KiB time=00:00:02.97 bitrate=2114.9kbits/s speed=0.0117x elapsed=0:04:14.48    \nframe=  360 fps=1.4 q=49.0 size=     768KiB time=00:00:02.98 bitrate=2109.0kbits/s speed=0.0117x elapsed=0:04:15.02    \nframe=  361 fps=1.4 q=49.0 size=     768KiB time=00:00:02.99 bitrate=2103.1kbits/s speed=0.0117x elapsed=0:04:15.54    \nframe=  362 fps=1.4 q=43.3 size=     768KiB time=00:00:03.00 bitrate=2097.3kbits/s speed=0.0117x elapsed=0:04:16.09    \nframe=  363 fps=1.4 q=47.1 size=     768KiB time=00:00:03.00 bitrate=2091.5kbits/s speed=0.0117x elapsed=0:04:16.63    \nframe=  364 fps=1.4 q=48.8 size=     768KiB time=00:00:03.01 bitrate=2085.7kbits/s speed=0.0117x elapsed=0:04:17.15    \nframe=  365 fps=1.4 q=49.0 size=     768KiB time=00:00:03.02 bitrate=2079.9kbits/s speed=0.0117x elapsed=0:04:17.69    \nframe=  365 fps=1.4 q=49.0 size=     768KiB time=00:00:03.02 bitrate=2079.9kbits/s speed=0.0117x elapsed=0:04:18.20    \nframe=  366 fps=1.4 q=42.8 size=     768KiB time=00:00:03.03 bitrate=2074.2kbits/s speed=0.0117x elapsed=0:04:18.73    \nframe=  368 fps=1.4 q=48.9 size=     768KiB time=00:00:03.05 bitrate=2062.9kbits/s speed=0.0118x elapsed=0:04:19.26    \nframe=  368 fps=1.4 q=48.9 size=     768KiB time=00:00:03.05 bitrate=2062.9kbits/s speed=0.0117x elapsed=0:04:19.79    \nframe=  369 fps=1.4 q=49.0 size=     768KiB time=00:00:03.05 bitrate=2057.3kbits/s speed=0.0117x elapsed=0:04:20.30    \nframe=  370 fps=1.4 q=43.3 size=     768KiB time=00:00:03.06 bitrate=2051.7kbits/s speed=0.0118x elapsed=0:04:20.82    \nframe=  370 fps=1.4 q=43.3 size=     768KiB time=00:00:03.06 bitrate=2051.7kbits/s speed=0.0117x elapsed=0:04:21.35    \nframe=  372 fps=1.4 q=49.0 size=     768KiB time=00:00:03.08 bitrate=2040.6kbits/s speed=0.0118x elapsed=0:04:21.89    \nframe=  372 fps=1.4 q=49.0 size=     768KiB time=00:00:03.08 bitrate=2040.6kbits/s speed=0.0118x elapsed=0:04:22.40    \nframe=  373 fps=1.4 q=49.0 size=     768KiB time=00:00:03.09 bitrate=2035.1kbits/s speed=0.0118x elapsed=0:04:22.93    \nframe=  374 fps=1.4 q=42.9 size=     768KiB time=00:00:03.10 bitrate=2029.6kbits/s speed=0.0118x elapsed=0:04:23.45    \nframe=  375 fps=1.4 q=47.3 size=     768KiB time=00:00:03.10 bitrate=2024.2kbits/s speed=0.0118x elapsed=0:04:23.97    \nframe=  377 fps=1.4 q=49.0 size=     768KiB time=00:00:03.12 bitrate=2013.4kbits/s speed=0.0118x elapsed=0:04:24.48    \nframe=  379 fps=1.4 q=46.5 size=     768KiB time=00:00:03.14 bitrate=2002.7kbits/s speed=0.0119x elapsed=0:04:24.99    \nframe=  381 fps=1.4 q=49.0 size=     768KiB time=00:00:03.15 bitrate=1992.1kbits/s speed=0.0119x elapsed=0:04:25.51    \nframe=  383 fps=1.4 q=47.2 size=     768KiB time=00:00:03.17 bitrate=1981.7kbits/s speed=0.0119x elapsed=0:04:26.02    \nframe=  385 fps=1.4 q=49.0 size=     768KiB time=00:00:03.19 bitrate=1971.3kbits/s speed=0.012x elapsed=0:04:26.53    \nframe=  387 fps=1.4 q=47.0 size=     768KiB time=00:00:03.20 bitrate=1961.1kbits/s speed=0.012x elapsed=0:04:27.05    \nframe=  390 fps=1.5 q=42.9 size=     768KiB time=00:00:03.23 bitrate=1945.9kbits/s speed=0.0121x elapsed=0:04:27.57    \nframe=  393 fps=1.5 q=49.0 size=    1024KiB time=00:00:03.25 bitrate=2574.6kbits/s speed=0.0122x elapsed=0:04:28.09    \nframe=  396 fps=1.5 q=49.0 size=    1024KiB time=00:00:03.28 bitrate=2555.0kbits/s speed=0.0122x elapsed=0:04:28.61    \nframe=  398 fps=1.5 q=43.3 size=    1024KiB time=00:00:03.30 bitrate=2542.1kbits/s speed=0.0123x elapsed=0:04:29.12    \nframe=  401 fps=1.5 q=49.0 size=    1024KiB time=00:00:03.32 bitrate=2523.0kbits/s speed=0.0123x elapsed=0:04:29.63    \nframe=  405 fps=1.5 q=49.0 size=    1024KiB time=00:00:03.35 bitrate=2498.0kbits/s speed=0.0124x elapsed=0:04:30.15    \nframe=  408 fps=1.5 q=49.0 size=    1024KiB time=00:00:03.38 bitrate=2479.5kbits/s speed=0.0125x elapsed=0:04:30.67    \nframe=  411 fps=1.5 q=47.1 size=    1024KiB time=00:00:03.40 bitrate=2461.3kbits/s speed=0.0126x elapsed=0:04:31.18    \nframe=  415 fps=1.5 q=47.1 size=    1024KiB time=00:00:03.44 bitrate=2437.5kbits/s speed=0.0127x elapsed=0:04:31.70    \nframe=  417 fps=1.5 q=49.0 size=    1024KiB time=00:00:03.45 bitrate=2425.7kbits/s speed=0.0127x elapsed=0:04:32.21    \nframe=  421 fps=1.5 q=49.0 size=    1024KiB time=00:00:03.49 bitrate=2402.6kbits/s speed=0.0128x elapsed=0:04:32.74    \nframe=  424 fps=1.6 q=49.0 size=    1024KiB time=00:00:03.51 bitrate=2385.5kbits/s speed=0.0129x elapsed=0:04:33.25    \nframe=  428 fps=1.6 q=49.0 size=    1024KiB time=00:00:03.55 bitrate=2363.1kbits/s speed=0.013x elapsed=0:04:33.76    \nframe=  431 fps=1.6 q=47.1 size=    1024KiB time=00:00:03.57 bitrate=2346.6kbits/s speed=0.013x elapsed=0:04:34.28    \nframe=  434 fps=1.6 q=43.7 size=    1024KiB time=00:00:03.60 bitrate=2330.3kbits/s speed=0.0131x elapsed=0:04:34.79    \nframe=  437 fps=1.6 q=49.0 size=    1024KiB time=00:00:03.62 bitrate=2314.2kbits/s speed=0.0132x elapsed=0:04:35.30    \nframe=  441 fps=1.6 q=49.0 size=    1024KiB time=00:00:03.65 bitrate=2293.1kbits/s speed=0.0133x elapsed=0:04:35.82    \nframe=  443 fps=1.6 q=47.3 size=    1024KiB time=00:00:03.67 bitrate=2282.7kbits/s speed=0.0133x elapsed=0:04:36.35    \nframe=  447 fps=1.6 q=47.0 size=    1024KiB time=00:00:03.70 bitrate=2262.2kbits/s speed=0.0134x elapsed=0:04:36.86    \nframe=  450 fps=1.6 q=43.1 size=    1024KiB time=00:00:03.73 bitrate=2247.0kbits/s speed=0.0135x elapsed=0:04:37.37    \nframe=  453 fps=1.6 q=49.0 size=    1024KiB time=00:00:03.75 bitrate=2232.1kbits/s speed=0.0135x elapsed=0:04:37.88    \nframe=  456 fps=1.6 q=49.0 size=    1024KiB time=00:00:03.78 bitrate=2217.3kbits/s speed=0.0136x elapsed=0:04:38.40    \nframe=  459 fps=1.6 q=47.3 size=    1024KiB time=00:00:03.80 bitrate=2202.8kbits/s speed=0.0137x elapsed=0:04:38.91    \nframe=  462 fps=1.7 q=43.1 size=    1024KiB time=00:00:03.83 bitrate=2188.4kbits/s speed=0.0137x elapsed=0:04:39.43    \nframe=  465 fps=1.7 q=49.0 size=    1024KiB time=00:00:03.85 bitrate=2174.2kbits/s speed=0.0138x elapsed=0:04:39.94    \nframe=  468 fps=1.7 q=48.9 size=    1024KiB time=00:00:03.88 bitrate=2160.2kbits/s speed=0.0138x elapsed=0:04:40.46    \nframe=  472 fps=1.7 q=49.0 size=    1024KiB time=00:00:03.91 bitrate=2141.9kbits/s speed=0.0139x elapsed=0:04:40.98    \nframe=  474 fps=1.7 q=43.3 size=    1024KiB time=00:00:03.93 bitrate=2132.8kbits/s speed=0.014x elapsed=0:04:41.49    \nframe=  478 fps=1.7 q=43.2 size=    1024KiB time=00:00:03.96 bitrate=2114.9kbits/s speed=0.0141x elapsed=0:04:42.01    \nframe=  481 fps=1.7 q=49.0 size=    1024KiB time=00:00:03.99 bitrate=2101.6kbits/s speed=0.0141x elapsed=0:04:42.52    \nframe=  485 fps=1.7 q=48.9 size=    1024KiB time=00:00:04.02 bitrate=2084.2kbits/s speed=0.0142x elapsed=0:04:43.05    \nframe=  488 fps=1.7 q=48.9 size=    1280KiB time=00:00:04.05 bitrate=2589.2kbits/s speed=0.0143x elapsed=0:04:43.56    \nframe=  491 fps=1.7 q=47.4 size=    1280KiB time=00:00:04.07 bitrate=2573.3kbits/s speed=0.0143x elapsed=0:04:44.07    \nframe=  494 fps=1.7 q=43.3 size=    1280KiB time=00:00:04.10 bitrate=2557.6kbits/s speed=0.0144x elapsed=0:04:44.59    \nframe=  496 fps=1.7 q=49.0 size=    1280KiB time=00:00:04.11 bitrate=2547.2kbits/s speed=0.0144x elapsed=0:04:45.10    \nframe=  501 fps=1.8 q=49.0 size=    1280KiB time=00:00:04.15 bitrate=2521.7kbits/s speed=0.0146x elapsed=0:04:45.62    \nframe=  503 fps=1.8 q=46.2 size=    1280KiB time=00:00:04.17 bitrate=2511.6kbits/s speed=0.0146x elapsed=0:04:46.13    \nframe=  507 fps=1.8 q=46.4 size=    1280KiB time=00:00:04.20 bitrate=2491.7kbits/s speed=0.0147x elapsed=0:04:46.64    \nframe=  509 fps=1.8 q=49.0 size=    1280KiB time=00:00:04.22 bitrate=2481.9kbits/s speed=0.0147x elapsed=0:04:47.17    \nframe=  513 fps=1.8 q=48.9 size=    1280KiB time=00:00:04.25 bitrate=2462.5kbits/s speed=0.0148x elapsed=0:04:47.69    \nframe=  516 fps=1.8 q=48.9 size=    1280KiB time=00:00:04.28 bitrate=2448.1kbits/s speed=0.0149x elapsed=0:04:48.20    \nframe=  518 fps=1.8 q=43.0 size=    1280KiB time=00:00:04.30 bitrate=2438.6kbits/s speed=0.0149x elapsed=0:04:48.71    \nframe=  521 fps=1.8 q=48.9 size=    1280KiB time=00:00:04.32 bitrate=2424.5kbits/s speed=0.015x elapsed=0:04:49.23    \nframe=  524 fps=1.8 q=49.0 size=    1280KiB time=00:00:04.35 bitrate=2410.6kbits/s speed=0.015x elapsed=0:04:49.74    \nframe=  527 fps=1.8 q=47.1 size=    1280KiB time=00:00:04.37 bitrate=2396.8kbits/s speed=0.0151x elapsed=0:04:50.25    \nframe=  529 fps=1.8 q=49.0 size=    1280KiB time=00:00:04.39 bitrate=2387.7kbits/s speed=0.0151x elapsed=0:04:50.79    \nframe=  533 fps=1.8 q=49.0 size=    1280KiB time=00:00:04.42 bitrate=2369.7kbits/s speed=0.0152x elapsed=0:04:51.31    \nframe=  535 fps=1.8 q=47.4 size=    1280KiB time=00:00:04.44 bitrate=2360.9kbits/s speed=0.0152x elapsed=0:04:51.83    \nframe=  538 fps=1.8 q=42.9 size=    1280KiB time=00:00:04.46 bitrate=2347.6kbits/s speed=0.0153x elapsed=0:04:52.34    \nframe=  541 fps=1.8 q=49.0 size=    1280KiB time=00:00:04.49 bitrate=2334.6kbits/s speed=0.0153x elapsed=0:04:52.87    \nframe=  545 fps=1.9 q=49.0 size=    1280KiB time=00:00:04.52 bitrate=2317.4kbits/s speed=0.0154x elapsed=0:04:53.38    \nframe=  547 fps=1.9 q=47.6 size=    1280KiB time=00:00:04.54 bitrate=2308.9kbits/s speed=0.0155x elapsed=0:04:53.89    \nframe=  550 fps=1.9 q=42.9 size=    1280KiB time=00:00:04.56 bitrate=2296.2kbits/s speed=0.0155x elapsed=0:04:54.42    \nframe=  553 fps=1.9 q=49.0 size=    1280KiB time=00:00:04.59 bitrate=2283.7kbits/s speed=0.0156x elapsed=0:04:54.94    \nframe=  557 fps=1.9 q=49.9 size=    1280KiB time=00:00:04.62 bitrate=2267.3kbits/s speed=0.0157x elapsed=0:04:55.45    \nframe=  559 fps=1.9 q=43.9 size=    1280KiB time=00:00:04.64 bitrate=2259.1kbits/s speed=0.0157x elapsed=0:04:55.97    \nframe=  562 fps=1.9 q=49.9 size=    1280KiB time=00:00:04.66 bitrate=2247.0kbits/s speed=0.0157x elapsed=0:04:56.49    \nframe=  566 fps=1.9 q=50.0 size=    1280KiB time=00:00:04.70 bitrate=2231.1kbits/s speed=0.0158x elapsed=0:04:57.01    \nframe=  569 fps=1.9 q=50.0 size=    1280KiB time=00:00:04.72 bitrate=2219.3kbits/s speed=0.0159x elapsed=0:04:57.53    \nframe=  572 fps=1.9 q=47.1 size=    1280KiB time=00:00:04.75 bitrate=2207.6kbits/s speed=0.0159x elapsed=0:04:58.04    \nframe=  575 fps=1.9 q=43.3 size=    1280KiB time=00:00:04.77 bitrate=2196.0kbits/s speed=0.016x elapsed=0:04:58.56    \nframe=  578 fps=1.9 q=50.0 size=    1280KiB time=00:00:04.80 bitrate=2184.6kbits/s speed=0.016x elapsed=0:04:59.08    \nframe=  581 fps=1.9 q=49.9 size=    1536KiB time=00:00:04.82 bitrate=2607.9kbits/s speed=0.0161x elapsed=0:04:59.59    \nframe=  584 fps=1.9 q=44.2 size=    1536KiB time=00:00:04.85 bitrate=2594.5kbits/s speed=0.0162x elapsed=0:05:00.10    \nframe=  588 fps=2.0 q=43.4 size=    1536KiB time=00:00:04.88 bitrate=2576.8kbits/s speed=0.0162x elapsed=0:05:00.62    \nframe=  592 fps=2.0 q=50.0 size=    1536KiB time=00:00:04.91 bitrate=2559.3kbits/s speed=0.0163x elapsed=0:05:01.14    \nframe=  595 fps=2.0 q=50.0 size=    1536KiB time=00:00:04.94 bitrate=2546.4kbits/s speed=0.0164x elapsed=0:05:01.66    \nframe=  598 fps=2.0 q=47.2 size=    1536KiB time=00:00:04.96 bitrate=2533.5kbits/s speed=0.0164x elapsed=0:05:02.17    \n[mp4 @ 0000017825499bc0] Starting second pass: moving the moov atom to the beginning of the file\n[out#0/mp4 @ 0000017825499ac0] video:1578KiB audio:0KiB subtitle:0KiB other streams:0KiB global headers:2KiB muxing overhead: 0.689815%\nframe=  600 fps=2.0 q=49.9 Lsize=    1589KiB time=00:00:04.98 bitrate=2612.0kbits/s speed=0.0165x elapsed=0:05:02.29    \nx265 [info]: frame I:      3, Avg QP:43.07  kb/s: 11748.16\nx265 [info]: frame P:    147, Avg QP:42.81  kb/s: 7902.82 \nx265 [info]: frame B:    450, Avg QP:47.90  kb/s: 782.31  \nx265 [info]: Weighted P-Frames: Y:0.0% UV:0.0%\n\nencoded 600 frames in 302.01s (1.99 fps), 2581.66 kb/s, Avg QP:46.63\n",
  "seconds": 302.4695234298706,
  "probe_out": {}
}